{"glyphs":{"0":{"ha":772,"x_min":0,"x_max":0,"o":"m 385 990 b 721 483 650 990 721 831 b 385 -22 721 140 651 -22 b 50 482 118 -22 50 139 b 385 990 50 835 122 990 m 385 832 b 249 483 281 832 249 779 b 385 136 249 189 281 136 b 522 483 489 136 522 189 b 385 832 522 778 489 832 "},"1":{"ha":772,"x_min":0,"x_max":0,"o":"m 325 171 l 325 746 l 158 692 l 158 840 l 361 990 l 518 990 l 518 171 l 685 171 l 685 0 l 158 0 l 158 171 "},"2":{"ha":772,"x_min":0,"x_max":0,"o":"m 707 0 l 36 0 b 310 439 36 240 172 351 b 508 671 485 550 508 565 b 375 832 508 790 478 832 b 244 660 274 832 249 792 l 51 660 b 378 990 57 893 146 990 b 707 681 610 990 707 893 b 453 335 707 485 624 435 b 282 171 335 265 313 239 l 707 171 "},"3":{"ha":772,"x_min":0,"x_max":0,"o":"m 236 289 b 374 136 240 192 254 136 b 517 292 476 136 517 176 b 357 435 517 396 483 435 l 304 435 l 304 590 l 358 590 b 486 717 442 590 486 610 b 365 832 486 796 461 832 b 238 693 261 832 244 789 l 58 693 b 372 990 67 878 133 990 b 685 728 588 990 685 899 b 554 528 685 610 635 553 b 715 285 649 507 715 444 b 371 -22 715 86 611 -22 b 43 289 171 -22 53 53 "},"4":{"ha":772,"x_min":0,"x_max":0,"o":"m 429 213 l 33 213 l 33 379 b 419 989 132 590 258 796 l 624 989 l 624 368 l 735 368 l 735 213 l 624 213 l 624 0 l 429 0 m 429 368 l 432 758 b 189 368 338 633 257 506 "},"5":{"ha":772,"x_min":0,"x_max":0,"o":"m 239 261 b 381 136 249 169 289 136 b 524 319 478 136 524 175 b 372 493 524 454 483 493 b 238 418 299 493 267 471 l 76 443 l 151 972 l 681 972 l 681 801 l 293 801 l 263 619 b 413 651 288 636 329 651 b 722 324 624 651 722 553 b 369 -22 722 111 638 -22 b 46 261 171 -22 60 50 "},"6":{"ha":772,"x_min":0,"x_max":0,"o":"m 704 740 l 514 740 b 403 832 510 792 486 832 b 242 574 271 832 250 731 b 425 639 282 621 340 639 b 724 317 643 639 724 518 b 390 -22 724 81 613 -22 b 49 506 136 -22 49 113 b 415 990 49 704 71 990 b 704 740 601 990 681 907 m 250 311 b 397 136 250 175 299 136 b 531 318 463 136 531 153 b 394 481 531 444 490 481 b 250 311 294 481 250 440 "},"7":{"ha":772,"x_min":0,"x_max":0,"o":"m 46 972 l 726 972 l 726 826 b 375 0 606 701 390 385 l 181 0 b 514 801 197 365 407 678 l 46 801 "},"8":{"ha":772,"x_min":0,"x_max":0,"o":"m 388 597 b 507 717 467 597 507 628 b 386 832 507 800 471 832 b 263 718 292 832 263 790 b 388 597 263 631 304 597 m 724 286 b 382 -24 724 107 635 -24 b 49 272 135 -24 49 101 b 197 528 49 399 96 496 b 79 729 113 565 79 624 b 386 990 79 904 171 990 b 690 725 615 990 690 892 b 575 532 690 624 663 571 b 724 286 681 490 724 410 m 525 286 b 383 439 525 388 490 439 b 247 289 281 439 247 392 b 385 135 247 174 289 135 b 525 286 485 135 525 178 "},"9":{"ha":772,"x_min":0,"x_max":0,"o":"m 63 228 l 251 228 b 371 136 263 169 290 136 b 526 394 458 136 525 175 b 329 328 483 338 388 328 b 43 649 139 328 43 432 b 365 990 43 872 146 990 b 719 504 664 990 719 774 b 361 -22 719 135 615 -22 b 63 228 154 -22 79 82 m 514 651 b 376 832 514 789 468 832 b 242 657 267 832 242 768 b 379 486 242 524 279 486 b 514 651 469 486 514 515 "}," ":{"ha":386,"x_min":0,"x_max":0,"o":""},"!":{"ha":463,"x_min":0,"x_max":0,"o":"m 335 732 l 282 269 l 178 269 l 124 732 l 124 996 l 335 996 m 119 94 b 229 199 119 167 139 199 b 340 94 319 199 340 167 b 229 -8 340 22 319 -8 b 119 94 139 -8 119 22 "},"\"":{"ha":658,"x_min":0,"x_max":0,"o":"m 386 811 l 386 996 l 546 996 l 546 811 l 518 626 l 414 626 m 111 811 l 111 996 l 272 996 l 272 811 l 244 626 l 139 626 "},"#":{"ha":772,"x_min":0,"x_max":0,"o":"m 235 -6 l 97 -6 l 140 265 l 21 265 l 32 399 l 163 399 l 192 578 l 47 578 l 58 711 l 213 711 l 257 983 l 394 983 l 351 711 l 490 711 l 533 983 l 674 983 l 629 711 l 750 711 l 739 578 l 608 578 l 579 399 l 724 399 l 713 265 l 557 265 l 513 -6 l 375 -6 l 419 265 l 279 265 m 329 578 l 300 399 l 440 399 l 469 578 "},"$":{"ha":772,"x_min":0,"x_max":0,"o":"m 349 419 b 68 722 194 456 68 504 b 349 993 68 879 133 986 l 349 1075 l 424 1075 l 424 993 b 703 721 567 979 679 960 l 526 721 b 424 844 519 814 494 838 l 424 581 b 724 272 610 529 724 479 b 424 -19 724 108 651 -1 l 424 -151 l 349 -151 l 349 -19 b 46 292 128 0 53 86 l 226 292 b 349 131 238 171 268 139 m 424 128 b 543 256 508 133 543 174 b 424 397 543 354 493 382 m 349 844 b 242 735 274 839 242 804 b 349 601 242 669 269 622 "},"%":{"ha":1235,"x_min":0,"x_max":0,"o":"m 190 738 b 288 614 190 647 213 614 b 383 738 361 614 383 646 b 288 864 383 829 361 864 b 190 738 214 864 190 831 m 46 736 b 290 994 46 890 100 994 b 528 738 461 994 528 910 b 285 483 528 586 475 483 b 46 736 110 483 46 569 m 285 -29 l 831 994 l 944 994 l 401 -29 m 704 229 b 947 486 704 383 757 486 b 1186 231 1119 486 1186 403 b 943 -24 1186 78 1133 -24 b 704 229 767 -24 704 63 m 849 232 b 946 107 849 140 871 107 b 1042 231 1019 107 1042 139 b 946 356 1042 322 1019 356 b 849 232 871 356 849 322 "},"&":{"ha":1003,"x_min":0,"x_max":0,"o":"m 850 604 l 961 604 l 961 433 l 850 433 l 850 0 l 421 0 b 71 288 146 0 71 124 b 224 533 71 392 101 486 b 110 738 160 561 110 611 b 413 996 110 926 217 996 l 592 996 l 592 825 l 501 825 b 308 722 332 825 308 806 b 463 604 308 624 339 604 l 657 604 l 657 732 l 850 732 m 458 433 b 269 300 304 433 269 407 b 499 171 269 199 299 171 l 657 171 l 657 433 "},"'":{"ha":331,"x_min":0,"x_max":0,"o":"m 113 626 l 85 811 l 85 996 l 244 996 l 244 811 l 217 626 "},"(":{"ha":463,"x_min":0,"x_max":0,"o":"m 289 -269 b 56 365 164 -94 56 103 b 290 996 56 632 168 831 l 429 996 b 254 367 328 810 254 639 b 428 -269 254 101 324 -62 "},")":{"ha":463,"x_min":0,"x_max":0,"o":"m 172 996 b 406 361 297 821 406 622 b 171 -269 406 94 293 -103 l 32 -269 b 207 360 129 -90 207 82 b 33 996 207 672 107 876 "},"*":{"ha":540,"x_min":0,"x_max":0,"o":"m 81 604 l 186 738 l 32 782 l 67 889 l 214 831 l 208 1001 l 328 1001 l 321 831 l 472 888 l 507 778 l 350 738 l 454 603 l 361 539 l 268 674 l 172 538 "},"+":{"ha":811,"x_min":0,"x_max":0,"o":"m 324 317 l 56 317 l 56 479 l 324 479 l 324 747 l 486 747 l 486 479 l 754 479 l 754 317 l 486 317 l 486 49 l 324 49 "},",":{"ha":386,"x_min":0,"x_max":0,"o":"m 192 -8 b 82 94 101 -8 82 22 b 194 199 82 168 101 199 b 303 64 283 199 303 174 b 108 -215 303 -162 247 -215 l 108 -125 b 192 -8 169 -125 185 -104 "},"-":{"ha":463,"x_min":0,"x_max":0,"o":"m 39 471 l 422 471 l 422 286 l 39 286 "},".":{"ha":386,"x_min":0,"x_max":0,"o":"m 82 94 b 192 199 82 167 101 199 b 303 94 282 199 303 167 b 192 -8 303 22 282 -8 b 82 94 101 -8 82 22 "},"/":{"ha":386,"x_min":0,"x_max":0,"o":"m -29 -44 l 260 996 l 415 996 l 124 -44 l -29 -44 "},":":{"ha":463,"x_min":0,"x_max":0,"o":"m 121 94 b 231 199 121 167 140 199 b 342 94 321 199 342 167 b 231 -8 342 22 321 -8 b 121 94 140 -8 121 22 m 121 610 b 231 714 121 682 140 714 b 342 610 321 714 342 682 b 231 507 342 538 321 507 b 121 610 140 507 121 538 "},";":{"ha":463,"x_min":0,"x_max":0,"o":"m 121 610 b 231 714 121 682 140 714 b 342 610 321 714 342 682 b 231 507 342 538 321 507 b 121 610 140 507 121 538 m 231 -8 b 121 94 140 -8 121 22 b 233 199 121 168 140 199 b 342 64 322 199 342 174 b 147 -215 342 -162 286 -215 l 147 -125 b 231 -8 208 -125 224 -104 "},"<":{"ha":811,"x_min":0,"x_max":0,"o":"m 754 601 l 260 397 l 754 194 l 754 31 l 56 328 l 56 467 l 754 765 "},"=":{"ha":811,"x_min":0,"x_max":0,"o":"m 56 328 l 754 328 l 754 165 l 56 165 m 56 632 l 754 632 l 754 469 l 56 469 "},">":{"ha":811,"x_min":0,"x_max":0,"o":"m 56 194 l 550 399 l 56 601 l 56 765 l 754 467 l 754 329 l 56 31 "},"?":{"ha":849,"x_min":0,"x_max":0,"o":"m 78 694 b 424 1007 81 944 208 1007 b 775 715 633 1007 775 947 b 600 453 775 553 706 513 b 514 278 525 410 514 386 l 335 278 b 475 567 335 474 368 499 b 576 721 539 607 576 631 b 429 849 576 817 535 849 b 271 694 307 849 283 806 m 319 94 b 429 199 319 167 339 199 b 540 94 519 199 540 167 b 429 -8 540 22 519 -8 b 319 94 339 -8 319 22 "},"@":{"ha":1354,"x_min":0,"x_max":0,"o":"m 1075 -82 b 724 -185 976 -158 858 -185 b 121 368 396 -185 121 -42 b 708 949 121 710 311 949 b 1229 492 1040 949 1229 782 b 856 56 1229 213 1054 56 b 749 131 793 56 757 71 b 583 56 708 88 665 56 b 353 321 453 56 353 132 b 678 692 353 526 472 692 b 844 600 749 692 800 672 l 863 675 l 1004 675 l 917 278 b 907 219 911 250 907 235 b 938 189 907 193 918 189 b 1110 476 1031 189 1110 288 b 711 833 1110 700 996 833 b 249 371 353 833 249 624 b 722 -69 249 92 374 -69 b 997 0 860 -69 936 -42 m 511 329 b 622 189 511 233 546 189 b 804 422 743 189 804 303 b 689 560 804 508 772 560 b 511 329 572 560 511 456 "},"A":{"ha":1003,"x_min":0,"x_max":0,"o":"m 758 0 b 699 211 740 69 719 140 l 294 211 b 236 0 274 140 254 69 l 18 0 b 385 996 118 333 238 665 l 615 996 b 983 0 763 668 885 336 m 497 768 b 349 382 440 639 392 510 l 644 382 b 497 768 601 510 553 639 "},"B":{"ha":1003,"x_min":0,"x_max":0,"o":"m 590 996 b 893 738 786 996 893 926 b 779 533 893 583 822 551 b 932 288 901 486 932 392 b 582 0 932 124 857 0 l 104 0 l 104 996 m 310 825 l 310 604 l 540 604 b 694 722 664 604 694 619 b 501 825 694 806 675 825 m 310 433 l 310 171 l 494 171 b 724 299 682 171 724 185 b 535 433 724 418 685 433 "},"C":{"ha":1003,"x_min":0,"x_max":0,"o":"m 943 328 b 514 -22 929 133 821 -22 b 63 493 214 -22 63 126 b 515 1018 63 851 206 1018 b 943 686 760 1018 910 914 l 738 686 b 515 843 714 775 685 843 b 271 475 346 843 271 742 b 518 153 271 268 326 153 b 738 328 656 153 721 196 "},"D":{"ha":1003,"x_min":0,"x_max":0,"o":"m 519 996 b 946 503 833 996 946 860 b 518 0 946 160 826 0 l 104 0 l 104 996 m 310 825 l 310 171 l 492 171 b 738 501 692 171 738 247 b 469 825 738 772 708 825 "},"E":{"ha":926,"x_min":0,"x_max":0,"o":"m 104 996 l 839 996 l 839 825 l 310 825 l 310 607 l 799 607 l 799 436 l 310 436 l 310 171 l 861 171 l 861 0 l 104 0 "},"F":{"ha":849,"x_min":0,"x_max":0,"o":"m 104 996 l 804 996 l 804 825 l 310 825 l 310 592 l 742 592 l 742 421 l 310 421 l 310 0 l 104 0 "},"G":{"ha":1081,"x_min":0,"x_max":0,"o":"m 1017 418 b 550 -22 1017 88 835 -22 b 60 499 303 -22 60 71 b 550 1018 60 950 328 1018 b 1001 686 818 1018 982 919 l 796 686 b 556 843 783 783 729 843 b 268 497 365 843 268 771 b 551 153 268 210 374 153 b 811 364 754 153 811 217 l 581 364 l 581 535 l 1017 535 "},"H":{"ha":1003,"x_min":0,"x_max":0,"o":"m 100 996 l 306 996 l 306 613 l 696 613 l 696 996 l 901 996 l 901 0 l 696 0 l 696 442 l 306 442 l 306 0 l 100 0 "},"I":{"ha":386,"x_min":0,"x_max":0,"o":"m 90 996 l 296 996 l 296 0 l 90 0 "},"J":{"ha":772,"x_min":0,"x_max":0,"o":"m 668 996 l 668 288 b 349 -21 668 58 568 -21 b 22 353 83 -21 25 78 l 228 353 b 346 150 229 193 251 150 b 463 310 436 150 463 189 l 463 996 "},"K":{"ha":1003,"x_min":0,"x_max":0,"o":"m 114 996 l 319 996 l 319 578 l 710 996 l 979 996 l 583 594 l 1001 0 l 736 0 l 440 447 l 319 324 l 319 0 l 114 0 "},"L":{"ha":849,"x_min":0,"x_max":0,"o":"m 104 996 l 310 996 l 310 175 l 807 175 l 807 0 l 104 0 "},"M":{"ha":1157,"x_min":0,"x_max":0,"o":"m 96 996 l 399 996 l 582 458 l 758 996 l 1060 996 l 1060 0 l 854 0 l 854 732 l 678 213 l 478 213 l 301 732 l 301 0 l 96 0 "},"N":{"ha":1003,"x_min":0,"x_max":0,"o":"m 100 996 l 310 996 l 697 339 l 697 996 l 903 996 l 903 0 l 697 0 l 306 661 l 306 0 l 100 0 "},"O":{"ha":1081,"x_min":0,"x_max":0,"o":"m 60 499 b 538 1018 60 950 313 1018 b 1021 499 775 1018 1021 942 b 542 -22 1021 63 783 -22 b 60 499 288 -22 60 71 m 268 493 b 549 153 268 204 360 153 b 813 504 688 153 813 181 b 536 843 813 758 735 843 b 268 493 351 843 268 769 "},"P":{"ha":926,"x_min":0,"x_max":0,"o":"m 104 996 l 481 996 b 868 683 688 996 868 976 b 503 364 868 401 700 364 l 310 364 l 310 0 l 104 0 m 310 825 l 310 535 l 439 535 b 660 692 604 535 660 551 b 451 825 660 804 624 825 "},"Q":{"ha":1081,"x_min":0,"x_max":0,"o":"m 460 -174 l 460 -18 b 60 499 240 1 60 117 b 538 1018 60 950 313 1018 b 1021 499 775 1018 1021 942 b 619 -18 1021 110 831 0 l 619 -174 m 268 493 b 460 157 268 253 331 176 l 460 289 l 619 289 l 619 157 b 813 504 728 172 813 238 b 536 843 813 758 735 843 b 268 493 351 843 268 769 "},"R":{"ha":1003,"x_min":0,"x_max":0,"o":"m 104 996 l 536 996 b 924 697 743 996 924 990 b 729 404 924 503 843 431 l 989 0 l 739 0 l 494 392 l 310 392 l 310 0 l 104 0 m 310 825 l 310 563 l 494 563 b 715 704 660 563 715 579 b 507 825 715 804 681 825 "},"S":{"ha":926,"x_min":0,"x_max":0,"o":"m 261 313 b 482 153 269 208 285 153 b 663 269 586 153 663 168 b 547 388 663 331 635 364 l 306 453 b 78 725 185 485 78 543 b 451 1018 78 868 143 1018 b 840 704 744 1018 836 882 l 635 704 b 443 843 625 788 621 843 b 286 744 339 843 286 824 b 388 636 286 672 329 651 l 610 576 b 871 285 751 539 871 483 b 482 -22 871 4 631 -22 b 56 313 157 -22 68 106 "},"T":{"ha":849,"x_min":0,"x_max":0,"o":"m 322 821 l 22 821 l 22 996 l 826 996 l 826 821 l 528 821 l 528 0 l 322 0 "},"U":{"ha":1003,"x_min":0,"x_max":0,"o":"m 307 996 l 307 471 b 504 153 307 218 318 153 b 696 463 675 153 696 207 l 696 996 l 901 996 l 901 338 b 511 -22 901 31 744 -22 b 101 340 264 -22 101 38 l 101 996 "},"V":{"ha":926,"x_min":0,"x_max":0,"o":"m 358 0 b 17 996 222 325 108 657 l 239 996 b 467 247 299 746 378 494 b 693 996 556 496 631 744 l 908 996 b 564 0 815 657 699 325 "},"W":{"ha":1311,"x_min":0,"x_max":0,"o":"m 282 0 b 15 996 169 332 79 664 l 232 996 b 390 283 269 758 322 521 l 543 996 l 769 996 l 928 279 b 1088 996 999 518 1053 757 l 1296 996 b 1029 0 1232 664 1142 332 l 811 0 l 656 724 l 499 0 "},"X":{"ha":926,"x_min":0,"x_max":0,"o":"m 13 0 l 340 513 l 35 996 l 279 996 l 464 675 l 650 996 l 889 996 l 582 515 l 913 0 l 663 0 l 463 340 l 254 0 l 13 0 "},"Y":{"ha":926,"x_min":0,"x_max":0,"o":"m 364 390 b 13 996 219 592 107 794 l 254 996 b 471 576 307 856 381 717 b 679 996 560 717 628 856 l 914 996 b 569 388 821 793 710 590 l 569 0 l 364 0 "},"Z":{"ha":849,"x_min":0,"x_max":0,"o":"m 29 168 l 547 825 l 58 825 l 58 996 l 808 996 l 808 835 l 279 175 l 818 175 l 818 0 l 29 0 "},"[":{"ha":463,"x_min":0,"x_max":0,"o":"m 90 996 l 431 996 l 431 857 l 264 857 l 264 -129 l 431 -129 l 431 -269 l 90 -269 "},"\\":{"ha":386,"x_min":0,"x_max":0,"o":"m 125 996 l 415 -44 l 261 -44 l -29 996 l 125 996 "},"]":{"ha":463,"x_min":0,"x_max":0,"o":"m 371 -269 l 31 -269 l 31 -129 l 197 -129 l 197 857 l 31 857 l 31 996 l 371 996 "},"^":{"ha":811,"x_min":0,"x_max":0,"o":"m 82 450 l 335 978 l 478 978 l 728 450 l 561 450 l 406 803 l 249 450 l 82 450 "},"_":{"ha":746,"x_min":0,"x_max":0,"o":"m -3 -104 l 749 -104 l 749 -174 l -3 -174 "},"`":{"ha":463,"x_min":0,"x_max":0,"o":"m 319 828 l 186 828 l -11 1031 l 201 1031 "},"a":{"ha":772,"x_min":0,"x_max":0,"o":"m 67 510 b 382 750 76 699 185 750 b 692 536 585 750 692 696 l 692 0 l 507 0 l 507 56 b 282 -18 469 17 399 -18 b 44 185 107 -18 44 60 b 257 425 44 347 150 408 l 499 463 l 499 507 b 374 594 499 575 464 594 b 249 510 278 594 258 572 m 499 338 l 364 315 b 238 211 290 304 238 289 b 351 125 238 156 265 125 b 499 279 469 125 499 189 "},"b":{"ha":849,"x_min":0,"x_max":0,"o":"m 88 996 l 281 996 l 281 668 b 496 750 313 708 369 750 b 800 375 714 750 800 626 b 493 -18 800 97 696 -17 b 274 69 401 -18 321 -6 l 274 0 l 88 0 m 275 368 b 438 140 275 174 333 140 b 601 371 551 140 601 181 b 435 592 601 525 568 592 b 275 368 325 592 275 547 "},"c":{"ha":772,"x_min":0,"x_max":0,"o":"m 728 485 l 536 485 b 399 592 521 556 497 592 b 250 365 294 592 250 554 b 389 140 250 176 294 140 b 536 260 494 140 531 186 l 729 260 b 399 -18 714 96 640 -18 b 51 358 108 -18 51 146 b 408 750 51 592 121 750 b 729 485 619 750 710 664 "},"d":{"ha":849,"x_min":0,"x_max":0,"o":"m 576 0 l 576 69 b 358 -18 528 -6 453 -18 b 50 368 132 -17 50 131 b 356 750 50 653 167 750 b 569 668 478 750 538 710 l 569 996 l 763 996 l 763 0 m 575 367 b 417 592 575 547 526 592 b 249 371 282 592 249 525 b 413 140 249 179 300 140 b 575 367 519 140 575 175 "},"e":{"ha":772,"x_min":0,"x_max":0,"o":"m 522 210 l 719 210 b 386 -18 696 42 585 -18 b 36 374 160 -18 36 60 b 394 750 36 583 92 750 b 728 313 651 750 728 631 l 235 313 b 385 140 242 174 276 140 b 522 210 458 140 503 154 m 535 435 b 385 592 526 568 474 592 b 236 435 272 592 243 553 "},"f":{"ha":463,"x_min":0,"x_max":0,"o":"m 121 732 l 121 806 b 336 1008 121 935 161 1008 b 450 1000 396 1008 450 1000 l 450 850 b 383 853 450 850 403 853 b 314 767 314 853 314 819 l 314 732 l 446 732 l 446 576 l 314 576 l 314 0 l 121 0 l 121 576 l 14 576 l 14 732 "},"g":{"ha":849,"x_min":0,"x_max":0,"o":"m 288 -76 b 425 -154 294 -112 304 -154 b 571 13 550 -154 571 -110 l 571 81 b 369 -1 531 25 474 -1 b 54 374 161 -1 54 104 b 357 750 54 640 158 750 b 581 653 497 750 556 696 l 581 732 l 764 732 l 764 50 b 407 -297 764 -151 747 -297 b 74 -76 206 -297 78 -246 m 253 371 b 407 157 253 214 288 157 b 572 378 533 157 572 221 b 406 592 572 532 535 592 b 253 371 299 592 253 550 "},"h":{"ha":849,"x_min":0,"x_max":0,"o":"m 285 665 b 493 750 331 738 418 750 b 756 413 711 750 756 644 l 756 0 l 563 0 l 563 378 b 439 592 563 544 563 592 b 285 401 311 592 285 540 l 285 0 l 92 0 l 92 996 l 285 996 "},"i":{"ha":386,"x_min":0,"x_max":0,"o":"m 96 732 l 289 732 l 289 0 l 96 0 m 82 911 b 192 1015 82 983 101 1015 b 303 911 282 1015 303 983 b 192 808 303 839 282 808 b 82 911 101 808 82 839 "},"j":{"ha":386,"x_min":0,"x_max":0,"o":"m 288 32 b 75 -294 288 -229 257 -294 b -7 -287 15 -294 -7 -287 l -7 -131 b 29 -132 -7 -131 17 -132 b 94 -36 69 -132 94 -117 l 94 732 l 288 732 m 81 911 b 190 1015 81 983 100 1015 b 301 911 281 1015 301 983 b 190 808 301 839 281 808 b 81 911 100 808 81 839 "},"k":{"ha":772,"x_min":0,"x_max":0,"o":"m 94 996 l 288 996 l 288 461 l 525 732 l 763 732 l 507 454 l 772 0 l 549 0 l 371 318 l 288 232 l 288 0 l 94 0 "},"l":{"ha":386,"x_min":0,"x_max":0,"o":"m 96 996 l 289 996 l 289 0 l 96 0 "},"m":{"ha":1235,"x_min":0,"x_max":0,"o":"m 271 732 l 271 654 b 490 750 318 722 383 750 b 692 647 604 750 653 718 b 911 750 725 696 772 750 b 1147 493 1101 750 1147 649 l 1147 0 l 954 0 l 954 435 b 844 592 954 553 933 592 b 714 350 722 592 714 518 l 714 0 l 521 0 l 521 426 b 410 592 521 547 521 592 b 281 356 290 592 281 539 l 281 0 l 88 0 l 88 732 "},"n":{"ha":849,"x_min":0,"x_max":0,"o":"m 563 421 b 438 592 563 533 561 592 b 285 347 300 592 285 519 l 285 0 l 92 0 l 92 732 l 275 732 l 275 638 b 519 750 328 708 385 750 b 756 447 707 750 756 669 l 756 0 l 563 0 "},"o":{"ha":849,"x_min":0,"x_max":0,"o":"m 800 367 b 422 -18 800 99 661 -18 b 49 367 233 -18 49 56 b 424 751 49 631 182 751 b 800 367 665 751 800 631 m 601 368 b 424 593 601 532 557 593 b 247 367 294 593 247 535 b 425 140 247 197 294 140 b 601 368 553 140 601 196 "},"p":{"ha":849,"x_min":0,"x_max":0,"o":"m 272 732 l 272 653 b 496 750 324 728 394 750 b 800 363 696 750 800 663 b 496 -18 800 111 726 -18 b 282 63 360 -18 308 26 l 282 -282 l 89 -282 l 89 732 m 275 371 b 443 140 275 204 317 140 b 601 363 571 140 601 207 b 438 592 601 531 565 592 b 275 371 317 592 275 536 "},"q":{"ha":849,"x_min":0,"x_max":0,"o":"m 763 -282 l 569 -282 l 569 60 b 365 -18 531 0 461 -18 b 50 356 126 -18 50 94 b 357 750 50 633 136 750 b 581 651 469 750 532 719 l 581 732 l 763 732 m 574 363 b 406 592 574 554 515 592 b 249 360 301 592 249 558 b 408 140 249 189 288 140 b 574 363 524 140 574 185 "},"r":{"ha":540,"x_min":0,"x_max":0,"o":"m 90 0 l 90 732 l 272 732 l 272 640 b 461 747 317 717 365 747 b 511 743 496 747 511 743 l 511 558 b 450 563 511 558 489 563 b 283 271 297 563 283 438 l 283 0 "},"s":{"ha":772,"x_min":0,"x_max":0,"o":"m 238 225 b 392 125 244 146 288 125 b 528 196 493 125 528 144 b 442 271 528 238 508 253 l 239 319 b 67 521 132 346 67 392 b 388 750 67 668 154 750 b 699 524 567 750 689 701 l 506 524 b 385 607 496 589 474 607 b 260 542 283 607 260 583 b 340 474 260 507 279 489 l 521 431 b 721 224 654 399 721 347 b 390 -18 721 51 590 -18 b 44 225 201 -18 53 44 "},"t":{"ha":463,"x_min":0,"x_max":0,"o":"m 429 576 l 304 576 l 304 263 b 382 140 304 160 304 140 b 429 143 411 140 429 143 l 429 0 b 292 -11 429 0 363 -11 b 111 260 111 -11 111 63 l 111 576 l 15 576 l 15 732 l 111 732 l 111 913 l 304 913 l 304 732 l 429 732 "},"u":{"ha":849,"x_min":0,"x_max":0,"o":"m 572 78 b 346 -18 522 -3 432 -18 b 93 257 169 -18 93 47 l 93 732 l 286 732 l 286 269 b 414 140 286 171 317 140 b 561 310 515 140 561 174 l 561 732 l 754 732 l 754 0 l 572 0 "},"v":{"ha":772,"x_min":0,"x_max":0,"o":"m 289 0 b 15 732 175 244 85 488 l 226 732 b 388 206 263 557 314 381 b 553 732 460 381 514 557 l 756 732 b 482 0 686 488 596 244 l 289 0 "},"w":{"ha":1081,"x_min":0,"x_max":0,"o":"m 225 0 b 10 732 131 244 60 488 l 210 732 b 331 221 232 561 272 392 l 444 732 l 636 732 l 753 221 b 875 732 813 392 853 561 l 1071 732 b 851 0 1018 488 949 244 l 644 0 l 538 471 l 433 0 "},"x":{"ha":772,"x_min":0,"x_max":0,"o":"m 271 374 l 26 732 l 263 732 l 388 522 l 514 732 l 742 732 l 497 376 l 754 0 l 517 0 l 382 222 l 247 0 l 17 0 "},"y":{"ha":772,"x_min":0,"x_max":0,"o":"m 225 732 b 388 199 261 554 315 376 l 547 732 l 750 732 l 489 0 b 201 -294 407 -232 379 -294 b 104 -289 149 -294 104 -289 l 104 -137 b 136 -140 104 -137 122 -140 b 286 -19 211 -140 263 -132 b 13 732 172 231 82 482 "},"z":{"ha":694,"x_min":0,"x_max":0,"o":"m 26 146 l 401 576 l 53 576 l 53 732 l 650 732 l 650 582 l 276 158 l 667 158 l 667 0 l 26 0 "},"{":{"ha":540,"x_min":0,"x_max":0,"o":"m 58 432 b 197 522 119 432 197 453 l 197 810 b 456 996 197 964 293 996 l 507 996 l 507 860 b 367 765 381 860 367 838 l 367 514 b 243 364 367 408 324 388 b 367 214 324 340 367 319 l 367 -39 b 507 -133 367 -111 381 -133 l 507 -269 l 456 -269 b 197 -83 293 -269 197 -237 l 197 206 b 58 296 197 275 119 296 "},"|":{"ha":389,"x_min":0,"x_max":0,"o":"m 117 996 l 271 996 l 271 -269 l 117 -269 "},"}":{"ha":540,"x_min":0,"x_max":0,"o":"m 482 296 b 343 206 421 296 343 275 l 343 -83 b 85 -269 343 -237 247 -269 l 33 -269 l 33 -133 b 174 -39 160 -133 174 -111 l 174 214 b 297 364 174 319 217 340 b 174 514 217 388 174 408 l 174 765 b 33 860 174 838 160 860 l 33 996 l 85 996 b 343 810 247 996 343 964 l 343 522 b 482 432 343 453 421 432 "},"~":{"ha":811,"x_min":0,"x_max":0,"o":"m 75 278 b 269 507 75 422 132 507 b 532 436 396 507 436 436 b 614 513 590 436 603 461 l 735 513 b 554 289 735 350 679 289 b 275 358 421 289 363 358 b 190 278 214 358 197 324 "}," ":{"ha":386,"x_min":0,"x_max":0,"o":""},"¡":{"ha":463,"x_min":0,"x_max":0,"o":"m 128 0 l 181 463 l 285 463 l 339 0 l 339 -264 l 128 -264 m 343 638 b 233 533 343 565 324 533 b 122 638 143 533 122 565 b 233 740 122 710 143 740 b 343 638 324 740 343 710 "},"¢":{"ha":772,"x_min":0,"x_max":0,"o":"m 538 485 b 440 590 529 554 510 583 l 440 142 b 538 260 514 153 532 196 l 731 260 b 440 -17 715 103 650 -3 l 440 -151 l 365 -151 l 365 -17 b 51 357 104 -4 51 154 b 365 749 51 578 114 735 l 365 883 l 440 883 l 440 749 b 729 485 626 740 710 658 m 250 368 b 365 142 250 231 267 154 l 365 590 b 250 368 264 572 250 493 "},"£":{"ha":772,"x_min":0,"x_max":0,"o":"m 301 543 l 521 543 l 521 436 l 301 436 l 301 175 l 726 175 l 726 0 l 29 0 l 29 175 l 119 175 l 119 436 l 29 436 l 29 543 l 119 543 l 119 763 b 403 1001 119 917 196 1001 b 685 756 593 1001 678 929 l 504 756 b 399 854 501 829 475 854 b 301 782 321 854 301 828 "},"¤":{"ha":772,"x_min":0,"x_max":0,"o":"m 276 492 b 388 349 276 388 301 349 b 499 492 472 349 499 386 b 386 636 499 597 472 636 b 276 492 303 636 276 599 m 129 347 b 110 490 115 388 110 435 b 131 635 110 544 115 593 l 44 721 l 160 836 l 238 757 b 389 786 276 775 325 786 b 539 758 449 786 499 776 l 617 836 l 731 721 l 644 635 b 664 493 658 596 664 547 b 644 351 664 439 658 392 l 732 264 l 617 149 l 538 228 b 386 200 499 210 450 200 b 236 226 326 200 275 208 l 160 150 l 44 264 "},"¥":{"ha":772,"x_min":0,"x_max":0,"o":"m 61 496 l 213 496 b -25 924 115 646 44 774 l 204 924 b 400 549 254 792 314 682 b 588 924 485 682 538 792 l 810 924 b 576 496 740 774 671 646 l 724 496 l 724 340 l 493 340 l 493 272 l 724 272 l 724 117 l 493 117 l 493 0 l 299 0 l 299 117 l 61 117 l 61 272 l 299 272 l 299 340 l 61 340 "},"¦":{"ha":389,"x_min":0,"x_max":0,"o":"m 118 996 l 272 996 l 272 482 l 118 482 m 118 244 l 272 244 l 272 -269 l 118 -269 "},"§":{"ha":772,"x_min":0,"x_max":0,"o":"m 486 764 b 381 863 483 838 457 863 b 283 792 304 863 283 836 b 393 682 283 746 306 731 l 600 567 b 724 361 686 521 724 456 b 596 163 724 278 668 197 b 681 -12 651 115 681 72 b 383 -267 681 -183 586 -267 b 85 -12 163 -267 96 -158 l 268 -12 b 394 -121 276 -93 303 -121 b 492 -29 461 -121 492 -93 b 415 64 492 13 468 32 l 139 229 b 44 418 69 271 44 332 b 172 613 44 515 93 565 b 101 782 135 654 101 692 b 386 1010 101 922 181 1010 b 667 764 572 1010 660 939 m 496 231 b 556 325 532 256 556 285 b 468 425 556 368 517 396 l 272 539 b 213 454 238 526 213 483 b 285 353 213 410 240 379 "},"¨":{"ha":463,"x_min":0,"x_max":0,"o":"m 271 924 b 369 1018 271 989 288 1018 b 469 924 451 1018 469 989 b 369 831 469 858 451 831 b 271 924 288 831 271 858 m -8 924 b 90 1018 -8 989 8 1018 b 190 924 172 1018 190 989 b 90 831 190 858 172 831 b -8 924 8 831 -8 858 "},"©":{"ha":1024,"x_min":0,"x_max":0,"o":"m 511 904 b 122 496 258 904 122 772 b 510 88 122 221 257 88 l 513 88 b 901 497 763 88 901 221 b 511 904 901 772 763 904 m 771 406 b 528 201 744 242 646 201 b 249 497 347 201 249 289 b 526 796 249 694 326 796 b 771 599 674 796 747 738 l 642 599 b 515 683 624 667 590 683 b 383 501 415 683 383 632 b 514 314 383 358 419 314 b 642 406 610 314 639 356 m 513 1018 b 1036 496 831 1018 1036 851 b 513 -26 1036 142 831 -26 b -12 496 193 -26 -12 142 b 513 1018 -12 851 193 1018 "},"ª":{"ha":514,"x_min":0,"x_max":0,"o":"m 179 539 b 26 678 75 539 26 581 b 174 819 26 758 60 801 l 326 843 l 326 861 b 254 918 326 903 308 918 b 169 869 188 918 169 896 l 46 869 b 251 1018 61 993 118 1018 b 454 883 399 1018 454 988 l 454 550 l 333 550 l 333 601 b 179 539 313 568 265 539 m 326 761 l 242 746 b 161 682 183 736 161 725 b 228 629 161 638 186 629 b 326 724 303 629 326 657 "},"«":{"ha":772,"x_min":0,"x_max":0,"o":"m 319 656 l 411 564 l 225 379 l 411 194 l 319 103 l 97 324 l 97 435 m 611 656 l 703 564 l 517 379 l 703 194 l 611 103 l 389 324 l 389 435 "},"¬":{"ha":811,"x_min":0,"x_max":0,"o":"m 593 469 l 56 469 l 56 632 l 754 632 l 754 185 l 593 185 "},"­":{"ha":463,"x_min":0,"x_max":0,"o":"m 39 471 l 422 471 l 422 286 l 39 286 "},"®":{"ha":1024,"x_min":0,"x_max":0,"o":"m 294 775 l 519 775 b 731 611 683 775 731 717 b 615 454 731 519 703 471 l 756 215 l 624 215 l 501 442 l 411 442 l 411 215 l 294 215 m 411 542 l 501 542 b 613 617 585 542 613 547 b 511 682 613 672 574 682 l 411 682 m 513 904 b 122 496 258 904 122 772 b 510 88 122 221 257 88 l 513 88 b 901 496 763 88 901 221 b 513 904 901 772 763 904 m 513 1018 b 1036 496 831 1018 1036 851 b 513 -26 1036 142 831 -26 b -12 496 193 -26 -12 142 b 513 1018 -12 851 193 1018 "},"¯":{"ha":463,"x_min":0,"x_max":0,"o":"m 0 951 l 463 951 l 463 842 l 0 842 "},"°":{"ha":556,"x_min":0,"x_max":0,"o":"m 74 788 b 278 992 74 926 139 992 b 482 788 415 992 482 926 b 278 583 482 650 415 583 b 74 788 139 583 74 650 m 163 788 b 278 672 163 707 197 672 b 393 788 358 672 393 707 b 278 903 393 868 358 903 b 163 788 197 903 163 868 "},"±":{"ha":811,"x_min":0,"x_max":0,"o":"m 56 163 l 754 163 l 754 0 l 56 0 m 324 485 l 56 485 l 56 647 l 324 647 l 324 915 l 486 915 l 486 647 l 754 647 l 754 485 l 486 485 l 486 217 l 324 217 "},"²":{"ha":463,"x_min":0,"x_max":0,"o":"m 14 432 b 214 697 22 557 32 582 b 311 825 268 731 311 764 b 231 890 311 865 292 890 b 147 801 154 890 149 851 l 22 801 b 236 996 25 943 96 996 b 442 815 386 996 442 935 b 329 640 442 742 421 696 b 199 542 222 575 211 567 l 442 542 l 442 432 "},"³":{"ha":463,"x_min":0,"x_max":0,"o":"m 139 599 b 225 517 140 550 153 517 b 310 601 285 517 310 540 b 213 675 310 656 290 675 l 179 675 l 179 765 l 204 765 b 292 833 256 765 292 772 b 222 893 292 871 278 893 b 144 819 156 893 144 861 l 25 819 b 224 996 29 943 81 996 b 422 842 363 996 422 946 b 350 729 422 779 400 753 b 444 593 410 710 444 679 b 232 415 444 472 375 415 b 15 599 131 415 21 444 "},"´":{"ha":463,"x_min":0,"x_max":0,"o":"m 260 1031 l 474 1031 l 275 828 l 142 828 "},"µ":{"ha":849,"x_min":0,"x_max":0,"o":"m 285 732 l 285 394 b 413 140 285 182 318 140 b 563 410 542 140 563 203 l 563 732 l 756 732 l 756 0 l 574 0 l 572 56 b 419 -18 544 -3 492 -18 b 285 54 346 -18 308 -3 l 285 -282 l 92 -282 l 92 732 "},"¶":{"ha":772,"x_min":0,"x_max":0,"o":"m 286 -268 l 286 465 b -6 719 63 472 -6 560 b 339 979 -6 917 99 979 l 772 979 l 772 826 l 715 826 l 715 -268 l 557 -268 l 557 826 l 444 826 l 444 -268 "},"·":{"ha":386,"x_min":0,"x_max":0,"o":"m 82 396 b 192 500 82 468 101 500 b 303 396 282 500 303 468 b 192 293 303 324 282 293 b 82 396 101 293 82 324 "},"¸":{"ha":463,"x_min":0,"x_max":0,"o":"m 174 -306 b 22 -278 78 -306 22 -278 l 33 -207 b 147 -224 33 -207 81 -224 b 229 -171 206 -224 229 -211 b 171 -125 229 -136 211 -125 l 122 -125 l 143 14 l 215 14 l 204 -51 l 218 -51 b 358 -178 285 -51 358 -76 b 174 -306 358 -267 304 -306 "},"¹":{"ha":463,"x_min":0,"x_max":0,"o":"m 194 431 l 194 843 l 44 793 l 44 885 l 218 996 l 331 996 l 331 431 "},"º":{"ha":507,"x_min":0,"x_max":0,"o":"m 496 779 b 254 538 496 617 426 538 b 11 779 81 538 11 617 b 254 1019 11 942 81 1019 b 496 779 429 1019 496 939 m 357 779 b 254 914 357 874 326 914 b 150 778 179 914 150 869 b 254 643 150 685 181 643 b 357 779 326 643 357 685 "},"»":{"ha":772,"x_min":0,"x_max":0,"o":"m 382 435 l 382 324 l 160 103 l 68 194 l 254 379 l 68 564 l 160 656 m 674 435 l 674 324 l 451 103 l 360 194 l 546 379 l 360 564 l 451 656 "},"¼":{"ha":1158,"x_min":0,"x_max":0,"o":"m 221 0 l 794 996 l 901 996 l 329 0 m 194 431 l 194 843 l 44 793 l 44 885 l 218 996 l 331 996 l 331 431 m 878 114 l 626 114 l 626 215 b 871 561 686 340 767 456 l 1006 561 l 1006 211 l 1076 211 l 1076 114 l 1006 114 l 1006 0 l 878 0 m 878 211 l 878 425 b 733 211 819 360 774 288 "},"½":{"ha":1158,"x_min":0,"x_max":0,"o":"m 221 0 l 794 996 l 901 996 l 329 0 m 681 0 b 881 265 689 125 699 150 b 978 393 935 299 978 332 b 897 458 978 433 958 458 b 814 369 821 458 815 419 l 689 369 b 903 564 692 511 763 564 b 1108 383 1053 564 1108 503 b 996 208 1108 310 1088 264 b 865 110 889 143 878 135 l 1108 110 l 1108 0 m 194 431 l 194 843 l 44 793 l 44 885 l 218 996 l 331 996 l 331 431 "},"¾":{"ha":1158,"x_min":0,"x_max":0,"o":"m 908 114 l 657 114 l 657 215 b 901 561 717 340 797 456 l 1036 561 l 1036 211 l 1107 211 l 1107 114 l 1036 114 l 1036 0 l 908 0 m 908 211 l 908 425 b 764 211 850 360 804 288 m 265 0 l 842 996 l 949 996 l 375 0 m 147 599 b 233 517 149 550 161 517 b 318 601 293 517 318 540 b 221 675 318 656 299 675 l 188 675 l 188 765 l 213 765 b 300 833 264 765 300 772 b 231 893 300 871 286 893 b 153 819 164 893 153 861 l 33 819 b 232 996 38 943 89 996 b 431 842 371 996 431 946 b 358 729 431 779 408 753 b 453 593 418 710 453 679 b 240 415 453 472 383 415 b 24 599 139 415 29 444 "},"¿":{"ha":849,"x_min":0,"x_max":0,"o":"m 774 38 b 424 -275 771 -212 639 -275 b 72 17 214 -275 72 -215 b 247 279 72 179 142 219 b 333 454 322 322 333 346 l 513 454 b 372 165 513 258 479 233 b 271 11 308 125 271 101 b 418 -117 271 -85 313 -117 b 581 38 540 -117 569 -78 m 528 638 b 418 533 528 565 508 533 b 307 638 328 533 307 565 b 418 740 307 710 328 740 b 528 638 508 740 528 710 "},"À":{"ha":1003,"x_min":0,"x_max":0,"o":"m 758 0 b 699 211 740 69 719 140 l 294 211 b 236 0 274 140 254 69 l 18 0 b 385 996 118 333 238 665 l 615 996 b 983 0 763 668 885 336 m 497 768 b 349 382 440 639 392 510 l 644 382 b 497 768 601 510 553 639 m 590 1083 l 457 1083 l 260 1286 l 472 1286 "},"Á":{"ha":1003,"x_min":0,"x_max":0,"o":"m 758 0 b 699 211 740 69 719 140 l 294 211 b 236 0 274 140 254 69 l 18 0 b 385 996 118 333 238 665 l 615 996 b 983 0 763 668 885 336 m 497 768 b 349 382 440 639 392 510 l 644 382 b 497 768 601 510 553 639 m 531 1286 l 744 1286 l 546 1083 l 413 1083 "},"Â":{"ha":1003,"x_min":0,"x_max":0,"o":"m 758 0 b 699 211 740 69 719 140 l 294 211 b 236 0 274 140 254 69 l 18 0 b 385 996 118 333 238 665 l 615 996 b 983 0 763 668 885 336 m 497 768 b 349 382 440 639 392 510 l 644 382 b 497 768 601 510 553 639 m 415 1286 l 589 1286 l 742 1085 l 586 1085 l 500 1194 l 418 1085 l 263 1085 "},"Ã":{"ha":1003,"x_min":0,"x_max":0,"o":"m 758 0 b 699 211 740 69 719 140 l 294 211 b 236 0 274 140 254 69 l 18 0 b 385 996 118 333 238 665 l 615 996 b 983 0 763 668 885 336 m 497 768 b 349 382 440 639 392 510 l 644 382 b 497 768 601 510 553 639 m 254 1093 b 399 1265 254 1201 296 1265 b 597 1213 493 1265 524 1213 b 658 1269 640 1213 649 1231 l 747 1269 b 613 1101 747 1147 707 1101 b 403 1153 514 1101 469 1153 b 340 1093 358 1153 344 1129 "},"Ä":{"ha":1003,"x_min":0,"x_max":0,"o":"m 758 0 b 699 211 740 69 719 140 l 294 211 b 236 0 274 140 254 69 l 18 0 b 385 996 118 333 238 665 l 615 996 b 983 0 763 668 885 336 m 497 768 b 349 382 440 639 392 510 l 644 382 b 497 768 601 510 553 639 m 542 1179 b 640 1274 542 1244 558 1274 b 740 1179 722 1274 740 1244 b 640 1086 740 1114 722 1086 b 542 1179 558 1086 542 1114 m 263 1179 b 361 1274 263 1244 279 1274 b 461 1179 443 1274 461 1244 b 361 1086 461 1114 443 1086 b 263 1179 279 1086 263 1114 "},"Å":{"ha":1003,"x_min":0,"x_max":0,"o":"m 758 0 b 699 211 740 69 719 140 l 294 211 b 236 0 274 140 254 69 l 18 0 b 385 996 118 333 238 665 l 615 996 b 983 0 763 668 885 336 m 497 768 b 349 382 440 639 392 510 l 644 382 b 497 768 601 510 553 639 m 660 1193 b 501 1039 660 1082 596 1039 b 343 1193 406 1039 343 1082 b 501 1347 343 1303 406 1347 b 660 1193 597 1347 660 1304 m 572 1193 b 501 1264 572 1242 550 1264 b 431 1193 451 1264 431 1242 b 501 1122 431 1143 453 1122 b 572 1193 550 1122 572 1143 "},"Æ":{"ha":1389,"x_min":0,"x_max":0,"o":"m 628 0 l 628 211 l 294 211 b 236 0 272 138 253 67 l 18 0 b 385 996 118 333 238 665 l 1311 996 l 1311 825 l 833 825 l 833 607 l 1264 607 l 1264 436 l 833 436 l 833 171 l 1324 171 l 1324 0 m 515 825 b 347 382 454 688 397 535 l 628 382 l 628 825 "},"Ç":{"ha":1003,"x_min":0,"x_max":0,"o":"m 521 -306 b 369 -278 425 -306 369 -278 l 381 -207 b 494 -224 381 -207 428 -224 b 576 -171 553 -224 576 -211 b 518 -125 576 -136 558 -125 l 469 -125 l 485 -21 b 63 493 204 -11 63 138 b 515 1018 63 851 206 1018 b 943 686 760 1018 910 914 l 738 686 b 515 843 714 775 685 843 b 271 475 346 843 271 742 b 518 153 271 268 326 153 b 738 328 656 153 721 196 l 943 328 b 556 -21 929 142 831 -7 l 551 -51 l 565 -51 b 706 -178 632 -51 706 -76 b 521 -306 706 -267 651 -306 "},"È":{"ha":926,"x_min":0,"x_max":0,"o":"m 104 996 l 839 996 l 839 825 l 310 825 l 310 607 l 799 607 l 799 436 l 310 436 l 310 171 l 861 171 l 861 0 l 104 0 m 551 1083 l 418 1083 l 221 1286 l 433 1286 "},"É":{"ha":926,"x_min":0,"x_max":0,"o":"m 104 996 l 839 996 l 839 825 l 310 825 l 310 607 l 799 607 l 799 436 l 310 436 l 310 171 l 861 171 l 861 0 l 104 0 m 492 1286 l 706 1286 l 507 1083 l 374 1083 "},"Ê":{"ha":926,"x_min":0,"x_max":0,"o":"m 104 996 l 839 996 l 839 825 l 310 825 l 310 607 l 799 607 l 799 436 l 310 436 l 310 171 l 861 171 l 861 0 l 104 0 m 375 1286 l 549 1286 l 701 1085 l 546 1085 l 460 1194 l 378 1085 l 222 1085 "},"Ë":{"ha":926,"x_min":0,"x_max":0,"o":"m 104 996 l 839 996 l 839 825 l 310 825 l 310 607 l 799 607 l 799 436 l 310 436 l 310 171 l 861 171 l 861 0 l 104 0 m 503 1179 b 601 1274 503 1244 519 1274 b 701 1179 683 1274 701 1244 b 601 1086 701 1114 683 1086 b 503 1179 519 1086 503 1114 m 224 1179 b 322 1274 224 1244 240 1274 b 422 1179 404 1274 422 1244 b 322 1086 422 1114 404 1086 b 224 1179 240 1086 224 1114 "},"Ì":{"ha":386,"x_min":0,"x_max":0,"o":"m 90 996 l 296 996 l 296 0 l 90 0 m 282 1083 l 149 1083 l -49 1286 l 164 1286 "},"Í":{"ha":386,"x_min":0,"x_max":0,"o":"m 90 996 l 296 996 l 296 0 l 90 0 m 222 1286 l 436 1286 l 238 1083 l 104 1083 "},"Î":{"ha":386,"x_min":0,"x_max":0,"o":"m 90 996 l 296 996 l 296 0 l 90 0 m 107 1286 l 281 1286 l 433 1085 l 278 1085 l 192 1194 l 110 1085 l -46 1085 "},"Ï":{"ha":386,"x_min":0,"x_max":0,"o":"m 90 996 l 296 996 l 296 0 l 90 0 m 233 1179 b 332 1274 233 1244 250 1274 b 432 1179 414 1274 432 1244 b 332 1086 432 1114 414 1086 b 233 1179 250 1086 233 1114 m -46 1179 b 53 1274 -46 1244 -29 1274 b 153 1179 135 1274 153 1244 b 53 1086 153 1114 135 1086 b -46 1179 -29 1086 -46 1114 "},"Ð":{"ha":1003,"x_min":0,"x_max":0,"o":"m 519 996 b 946 503 833 996 946 860 b 518 0 946 197 864 0 l 104 0 l 104 433 l -3 433 l -3 594 l 104 594 l 104 996 m 307 825 l 307 594 l 532 594 l 532 433 l 307 433 l 307 171 l 492 171 b 735 501 692 171 735 247 b 469 825 735 810 671 825 "},"Ñ":{"ha":1003,"x_min":0,"x_max":0,"o":"m 100 996 l 310 996 l 697 339 l 697 996 l 903 996 l 903 0 l 697 0 l 306 661 l 306 0 l 100 0 m 254 1093 b 399 1265 254 1201 296 1265 b 597 1213 493 1265 524 1213 b 658 1269 640 1213 649 1231 l 747 1269 b 613 1101 747 1147 707 1101 b 403 1153 514 1101 469 1153 b 340 1093 358 1153 344 1129 "},"Ò":{"ha":1081,"x_min":0,"x_max":0,"o":"m 60 499 b 538 1018 60 950 313 1018 b 1021 499 775 1018 1021 942 b 542 -22 1021 63 783 -22 b 60 499 288 -22 60 71 m 268 493 b 549 153 268 204 360 153 b 813 504 688 153 813 181 b 536 843 813 758 735 843 b 268 493 351 843 268 769 m 629 1083 l 496 1083 l 299 1286 l 511 1286 "},"Ó":{"ha":1081,"x_min":0,"x_max":0,"o":"m 60 499 b 538 1018 60 950 313 1018 b 1021 499 775 1018 1021 942 b 542 -22 1021 63 783 -22 b 60 499 288 -22 60 71 m 268 493 b 549 153 268 204 360 153 b 813 504 688 153 813 181 b 536 843 813 758 735 843 b 268 493 351 843 268 769 m 569 1286 l 783 1286 l 585 1083 l 451 1083 "},"Ô":{"ha":1081,"x_min":0,"x_max":0,"o":"m 60 499 b 538 1018 60 950 313 1018 b 1021 499 775 1018 1021 942 b 542 -22 1021 63 783 -22 b 60 499 288 -22 60 71 m 268 493 b 549 153 268 204 360 153 b 813 504 688 153 813 181 b 536 843 813 758 735 843 b 268 493 351 843 268 769 m 454 1286 l 628 1286 l 781 1085 l 625 1085 l 539 1194 l 457 1085 l 301 1085 "},"Õ":{"ha":1081,"x_min":0,"x_max":0,"o":"m 60 499 b 538 1018 60 950 313 1018 b 1021 499 775 1018 1021 942 b 542 -22 1021 63 783 -22 b 60 499 288 -22 60 71 m 268 493 b 549 153 268 204 360 153 b 813 504 688 153 813 181 b 536 843 813 758 735 843 b 268 493 351 843 268 769 m 294 1093 b 439 1265 294 1201 336 1265 b 638 1213 533 1265 564 1213 b 699 1269 681 1213 689 1231 l 788 1269 b 653 1101 788 1147 747 1101 b 443 1153 554 1101 510 1153 b 381 1093 399 1153 385 1129 "},"Ö":{"ha":1081,"x_min":0,"x_max":0,"o":"m 60 499 b 538 1018 60 950 313 1018 b 1021 499 775 1018 1021 942 b 542 -22 1021 63 783 -22 b 60 499 288 -22 60 71 m 268 493 b 549 153 268 204 360 153 b 813 504 688 153 813 181 b 536 843 813 758 735 843 b 268 493 351 843 268 769 m 581 1179 b 679 1274 581 1244 597 1274 b 779 1179 761 1274 779 1244 b 679 1086 779 1114 761 1086 b 581 1179 597 1086 581 1114 m 301 1179 b 400 1274 301 1244 318 1274 b 500 1179 482 1274 500 1244 b 400 1086 500 1114 482 1086 b 301 1179 318 1086 301 1114 "},"×":{"ha":811,"x_min":0,"x_max":0,"o":"m 290 397 l 61 626 l 176 742 l 406 513 l 633 742 l 747 626 l 519 399 l 749 169 l 633 54 l 404 283 l 176 56 l 61 169 "},"Ø":{"ha":1081,"x_min":0,"x_max":0,"o":"m 60 499 b 538 1018 60 950 313 1018 b 853 935 650 1018 764 1000 l 954 1047 l 1047 963 l 939 843 b 1021 499 989 765 1021 654 b 542 -22 1021 63 783 -22 b 229 58 425 -22 315 -3 l 126 -54 l 33 31 l 142 150 b 60 499 90 229 60 342 m 268 493 b 288 310 268 417 275 357 l 724 793 b 536 843 681 828 618 843 b 268 493 351 843 268 769 m 813 504 b 792 681 813 576 806 635 l 354 197 b 547 153 400 161 464 153 b 813 504 688 153 813 181 "},"Ù":{"ha":1003,"x_min":0,"x_max":0,"o":"m 307 996 l 307 471 b 504 153 307 218 318 153 b 696 463 675 153 696 207 l 696 996 l 901 996 l 901 338 b 511 -22 901 31 744 -22 b 101 340 264 -22 101 38 l 101 996 m 590 1083 l 457 1083 l 260 1286 l 472 1286 "},"Ú":{"ha":1003,"x_min":0,"x_max":0,"o":"m 307 996 l 307 471 b 504 153 307 218 318 153 b 696 463 675 153 696 207 l 696 996 l 901 996 l 901 338 b 511 -22 901 31 744 -22 b 101 340 264 -22 101 38 l 101 996 m 531 1286 l 744 1286 l 546 1083 l 413 1083 "},"Û":{"ha":1003,"x_min":0,"x_max":0,"o":"m 307 996 l 307 471 b 504 153 307 218 318 153 b 696 463 675 153 696 207 l 696 996 l 901 996 l 901 338 b 511 -22 901 31 744 -22 b 101 340 264 -22 101 38 l 101 996 m 415 1286 l 589 1286 l 742 1085 l 586 1085 l 500 1194 l 418 1085 l 263 1085 "},"Ü":{"ha":1003,"x_min":0,"x_max":0,"o":"m 307 996 l 307 471 b 504 153 307 218 318 153 b 696 463 675 153 696 207 l 696 996 l 901 996 l 901 338 b 511 -22 901 31 744 -22 b 101 340 264 -22 101 38 l 101 996 m 542 1179 b 640 1274 542 1244 558 1274 b 740 1179 722 1274 740 1244 b 640 1086 740 1114 722 1086 b 542 1179 558 1086 542 1114 m 263 1179 b 361 1274 263 1244 279 1274 b 461 1179 443 1274 461 1244 b 361 1086 461 1114 443 1086 b 263 1179 279 1086 263 1114 "},"Ý":{"ha":926,"x_min":0,"x_max":0,"o":"m 364 390 b 13 996 219 592 107 794 l 254 996 b 471 576 307 856 381 717 b 679 996 560 717 628 856 l 914 996 b 569 388 821 793 710 590 l 569 0 l 364 0 m 490 1286 l 704 1286 l 506 1083 l 372 1083 "},"Þ":{"ha":926,"x_min":0,"x_max":0,"o":"m 104 996 l 310 996 l 310 842 l 563 842 b 868 542 761 842 868 781 b 475 208 868 253 711 208 l 310 208 l 310 0 l 104 0 m 310 671 l 310 379 l 453 379 b 660 539 586 379 660 381 b 451 671 660 647 625 671 "},"ß":{"ha":849,"x_min":0,"x_max":0,"o":"m 93 658 b 406 1013 93 886 128 1013 b 717 772 608 1013 717 946 b 622 544 717 611 622 611 b 799 256 622 454 799 483 b 525 -15 799 97 714 -15 b 369 14 428 -15 369 14 l 369 146 b 475 138 369 146 422 138 b 606 256 569 138 606 183 b 429 538 606 414 429 349 b 524 753 429 665 524 629 b 407 854 524 843 474 854 b 286 650 311 854 286 831 l 286 0 l 93 0 "},"à":{"ha":772,"x_min":0,"x_max":0,"o":"m 67 510 b 382 750 76 699 185 750 b 692 536 585 750 692 696 l 692 0 l 507 0 l 507 56 b 282 -18 469 17 399 -18 b 44 185 107 -18 44 60 b 257 425 44 347 150 408 l 499 463 l 499 507 b 374 594 499 575 464 594 b 249 510 278 594 258 572 m 499 338 l 364 315 b 238 211 290 304 238 289 b 351 125 238 156 265 125 b 499 279 469 125 499 189 m 475 828 l 342 828 l 144 1031 l 357 1031 "},"á":{"ha":772,"x_min":0,"x_max":0,"o":"m 67 510 b 382 750 76 699 185 750 b 692 536 585 750 692 696 l 692 0 l 507 0 l 507 56 b 282 -18 469 17 399 -18 b 44 185 107 -18 44 60 b 257 425 44 347 150 408 l 499 463 l 499 507 b 374 594 499 575 464 594 b 249 510 278 594 258 572 m 499 338 l 364 315 b 238 211 290 304 238 289 b 351 125 238 156 265 125 b 499 279 469 125 499 189 m 415 1031 l 629 1031 l 431 828 l 297 828 "},"â":{"ha":772,"x_min":0,"x_max":0,"o":"m 67 510 b 382 750 76 699 185 750 b 692 536 585 750 692 696 l 692 0 l 507 0 l 507 56 b 282 -18 469 17 399 -18 b 44 185 107 -18 44 60 b 257 425 44 347 150 408 l 499 463 l 499 507 b 374 594 499 575 464 594 b 249 510 278 594 258 572 m 499 338 l 364 315 b 238 211 290 304 238 289 b 351 125 238 156 265 125 b 499 279 469 125 499 189 m 300 1031 l 474 1031 l 626 829 l 471 829 l 385 939 l 303 829 l 147 829 "},"ã":{"ha":772,"x_min":0,"x_max":0,"o":"m 67 510 b 382 750 76 699 185 750 b 692 536 585 750 692 696 l 692 0 l 507 0 l 507 56 b 282 -18 469 17 399 -18 b 44 185 107 -18 44 60 b 257 425 44 347 150 408 l 499 463 l 499 507 b 374 594 499 575 464 594 b 249 510 278 594 258 572 m 499 338 l 364 315 b 238 211 290 304 238 289 b 351 125 238 156 265 125 b 499 279 469 125 499 189 m 139 838 b 283 1010 139 946 181 1010 b 482 957 378 1010 408 957 b 543 1014 525 957 533 975 l 632 1014 b 497 846 632 892 592 846 b 288 897 399 846 354 897 b 225 838 243 897 229 874 "},"ä":{"ha":772,"x_min":0,"x_max":0,"o":"m 67 510 b 382 750 76 699 185 750 b 692 536 585 750 692 696 l 692 0 l 507 0 l 507 56 b 282 -18 469 17 399 -18 b 44 185 107 -18 44 60 b 257 425 44 347 150 408 l 499 463 l 499 507 b 374 594 499 575 464 594 b 249 510 278 594 258 572 m 499 338 l 364 315 b 238 211 290 304 238 289 b 351 125 238 156 265 125 b 499 279 469 125 499 189 m 426 924 b 525 1018 426 989 443 1018 b 625 924 607 1018 625 989 b 525 831 625 858 607 831 b 426 924 443 831 426 858 m 147 924 b 246 1018 147 989 164 1018 b 346 924 328 1018 346 989 b 246 831 346 858 328 831 b 147 924 164 831 147 858 "},"å":{"ha":772,"x_min":0,"x_max":0,"o":"m 67 510 b 382 750 76 699 185 750 b 692 536 585 750 692 696 l 692 0 l 507 0 l 507 56 b 282 -18 469 17 399 -18 b 44 185 107 -18 44 60 b 257 425 44 347 150 408 l 499 463 l 499 507 b 374 594 499 575 464 594 b 249 510 278 594 258 572 m 499 338 l 364 315 b 238 211 290 304 238 289 b 351 125 238 156 265 125 b 499 279 469 125 499 189 m 550 938 b 392 783 550 826 486 783 b 233 938 296 783 233 826 b 392 1092 233 1047 296 1092 b 550 938 488 1092 550 1049 m 463 938 b 392 1008 463 986 440 1008 b 321 938 342 1008 321 986 b 392 867 321 888 343 867 b 463 938 440 867 463 888 "},"æ":{"ha":1235,"x_min":0,"x_max":0,"o":"m 1182 210 b 851 -18 1158 36 1038 -18 b 578 93 732 -18 629 4 b 303 -18 524 29 463 -18 b 58 183 119 -18 58 58 b 271 425 58 344 158 407 l 513 463 l 513 507 b 388 594 513 575 478 594 b 263 510 292 594 272 572 l 81 510 b 399 750 90 697 196 750 b 628 683 525 750 588 729 b 854 750 683 729 746 750 b 1190 313 1114 750 1190 632 l 701 313 b 861 140 708 188 722 140 b 985 210 935 140 965 147 m 513 338 l 375 315 b 251 211 300 306 251 286 b 364 125 251 156 278 125 b 513 279 483 125 513 192 m 997 435 b 850 592 989 568 939 592 b 701 435 738 592 708 553 "},"ç":{"ha":772,"x_min":0,"x_max":0,"o":"m 394 -306 b 243 -278 299 -306 243 -278 l 254 -207 b 368 -224 254 -207 301 -224 b 450 -171 426 -224 450 -211 b 392 -125 450 -136 432 -125 l 343 -125 l 358 -17 b 51 358 103 -1 51 156 b 408 750 51 592 121 750 b 729 485 619 750 710 664 l 536 485 b 399 592 521 556 497 592 b 250 365 294 592 250 554 b 389 140 250 176 294 140 b 536 260 494 140 531 186 l 729 260 b 431 -17 714 103 646 -7 l 425 -51 l 439 -51 b 579 -178 506 -51 579 -76 b 394 -306 579 -267 525 -306 "},"è":{"ha":772,"x_min":0,"x_max":0,"o":"m 522 210 l 719 210 b 386 -18 696 42 585 -18 b 36 374 160 -18 36 60 b 394 750 36 583 92 750 b 728 313 651 750 728 631 l 235 313 b 385 140 242 174 276 140 b 522 210 458 140 503 154 m 535 435 b 385 592 526 568 474 592 b 236 435 272 592 243 553 m 475 828 l 342 828 l 144 1031 l 357 1031 "},"é":{"ha":772,"x_min":0,"x_max":0,"o":"m 522 210 l 719 210 b 386 -18 696 42 585 -18 b 36 374 160 -18 36 60 b 394 750 36 583 92 750 b 728 313 651 750 728 631 l 235 313 b 385 140 242 174 276 140 b 522 210 458 140 503 154 m 535 435 b 385 592 526 568 474 592 b 236 435 272 592 243 553 m 415 1031 l 629 1031 l 431 828 l 297 828 "},"ê":{"ha":772,"x_min":0,"x_max":0,"o":"m 522 210 l 719 210 b 386 -18 696 42 585 -18 b 36 374 160 -18 36 60 b 394 750 36 583 92 750 b 728 313 651 750 728 631 l 235 313 b 385 140 242 174 276 140 b 522 210 458 140 503 154 m 535 435 b 385 592 526 568 474 592 b 236 435 272 592 243 553 m 300 1031 l 474 1031 l 626 829 l 471 829 l 385 939 l 303 829 l 147 829 "},"ë":{"ha":772,"x_min":0,"x_max":0,"o":"m 522 210 l 719 210 b 386 -18 696 42 585 -18 b 36 374 160 -18 36 60 b 394 750 36 583 92 750 b 728 313 651 750 728 631 l 235 313 b 385 140 242 174 276 140 b 522 210 458 140 503 154 m 535 435 b 385 592 526 568 474 592 b 236 435 272 592 243 553 m 426 924 b 525 1018 426 989 443 1018 b 625 924 607 1018 625 989 b 525 831 625 858 607 831 b 426 924 443 831 426 858 m 147 924 b 246 1018 147 989 164 1018 b 346 924 328 1018 346 989 b 246 831 346 858 328 831 b 147 924 164 831 147 858 "},"ì":{"ha":386,"x_min":0,"x_max":0,"o":"m 96 732 l 289 732 l 289 0 l 96 0 m 282 828 l 149 828 l -49 1031 l 164 1031 "},"í":{"ha":386,"x_min":0,"x_max":0,"o":"m 96 732 l 289 732 l 289 0 l 96 0 m 222 1031 l 436 1031 l 238 828 l 104 828 "},"î":{"ha":386,"x_min":0,"x_max":0,"o":"m 96 732 l 289 732 l 289 0 l 96 0 m 107 1031 l 281 1031 l 433 829 l 278 829 l 192 939 l 110 829 l -46 829 "},"ï":{"ha":386,"x_min":0,"x_max":0,"o":"m 96 732 l 289 732 l 289 0 l 96 0 m 233 924 b 332 1018 233 989 250 1018 b 432 924 414 1018 432 989 b 332 831 432 858 414 831 b 233 924 250 831 233 858 m -46 924 b 53 1018 -46 989 -29 1018 b 153 924 135 1018 153 989 b 53 831 153 858 135 831 b -46 924 -29 831 -46 858 "},"ð":{"ha":849,"x_min":0,"x_max":0,"o":"m 424 -18 b 49 361 189 -18 49 93 b 406 724 49 608 168 724 b 549 674 432 724 499 722 b 433 825 518 733 497 769 l 274 754 l 239 836 l 358 890 l 272 943 l 332 1039 b 497 953 332 1039 439 990 l 633 1013 l 669 928 l 582 889 b 799 403 726 754 799 628 b 424 -18 799 106 672 -18 m 247 350 b 415 140 247 189 313 140 b 600 354 565 140 600 242 b 424 565 600 483 556 565 b 247 350 293 565 247 485 "},"ñ":{"ha":849,"x_min":0,"x_max":0,"o":"m 563 421 b 438 592 563 533 561 592 b 285 347 300 592 285 519 l 285 0 l 92 0 l 92 732 l 275 732 l 275 638 b 519 750 328 708 385 750 b 756 447 707 750 756 669 l 756 0 l 563 0 m 179 838 b 324 1010 179 946 221 1010 b 522 957 418 1010 449 957 b 583 1014 565 957 574 975 l 672 1014 b 538 846 672 892 632 846 b 328 897 439 846 394 897 b 265 838 283 897 269 874 "},"ò":{"ha":849,"x_min":0,"x_max":0,"o":"m 800 367 b 422 -18 800 99 661 -18 b 49 367 233 -18 49 56 b 424 751 49 631 182 751 b 800 367 665 751 800 631 m 601 368 b 424 593 601 532 557 593 b 247 367 294 593 247 535 b 425 140 247 197 294 140 b 601 368 553 140 601 196 m 513 828 l 379 828 l 182 1031 l 394 1031 "},"ó":{"ha":849,"x_min":0,"x_max":0,"o":"m 800 367 b 422 -18 800 99 661 -18 b 49 367 233 -18 49 56 b 424 751 49 631 182 751 b 800 367 665 751 800 631 m 601 368 b 424 593 601 532 557 593 b 247 367 294 593 247 535 b 425 140 247 197 294 140 b 601 368 553 140 601 196 m 453 1031 l 667 1031 l 468 828 l 335 828 "},"ô":{"ha":849,"x_min":0,"x_max":0,"o":"m 800 367 b 422 -18 800 99 661 -18 b 49 367 233 -18 49 56 b 424 751 49 631 182 751 b 800 367 665 751 800 631 m 601 368 b 424 593 601 532 557 593 b 247 367 294 593 247 535 b 425 140 247 197 294 140 b 601 368 553 140 601 196 m 338 1031 l 511 1031 l 664 829 l 508 829 l 422 939 l 340 829 l 185 829 "},"õ":{"ha":849,"x_min":0,"x_max":0,"o":"m 800 367 b 422 -18 800 99 661 -18 b 49 367 233 -18 49 56 b 424 751 49 631 182 751 b 800 367 665 751 800 631 m 601 368 b 424 593 601 532 557 593 b 247 367 294 593 247 535 b 425 140 247 197 294 140 b 601 368 553 140 601 196 m 178 838 b 322 1010 178 946 219 1010 b 521 957 417 1010 447 957 b 582 1014 564 957 572 975 l 671 1014 b 536 846 671 892 631 846 b 326 897 438 846 393 897 b 264 838 282 897 268 874 "},"ö":{"ha":849,"x_min":0,"x_max":0,"o":"m 800 367 b 422 -18 800 99 661 -18 b 49 367 233 -18 49 56 b 424 751 49 631 182 751 b 800 367 665 751 800 631 m 601 368 b 424 593 601 532 557 593 b 247 367 294 593 247 535 b 425 140 247 197 294 140 b 601 368 553 140 601 196 m 464 924 b 563 1018 464 989 481 1018 b 663 924 644 1018 663 989 b 563 831 663 858 644 831 b 464 924 481 831 464 858 m 185 924 b 283 1018 185 989 201 1018 b 383 924 365 1018 383 989 b 283 831 383 858 365 831 b 185 924 201 831 185 858 "},"÷":{"ha":811,"x_min":0,"x_max":0,"o":"m 56 479 l 754 479 l 754 317 l 56 317 m 294 140 b 404 244 294 213 314 244 b 515 140 494 244 515 213 b 404 38 515 68 494 38 b 294 140 314 38 294 68 m 294 656 b 404 760 294 728 314 760 b 515 656 494 760 515 728 b 404 553 515 583 494 553 b 294 656 314 553 294 583 "},"ø":{"ha":849,"x_min":0,"x_max":0,"o":"m 800 367 b 422 -18 800 99 661 -18 b 197 35 342 -18 261 -4 l 114 -56 l 29 17 l 115 110 b 49 367 74 168 49 251 b 424 751 49 631 182 751 b 654 694 517 751 594 732 l 736 783 l 819 708 l 735 617 b 800 367 778 556 800 472 m 247 367 b 256 263 247 325 250 290 l 535 565 b 424 593 508 582 471 593 b 247 367 294 593 247 535 m 601 368 b 594 464 601 406 599 438 l 317 164 b 425 140 343 149 379 140 b 601 368 553 140 601 196 "},"ù":{"ha":849,"x_min":0,"x_max":0,"o":"m 572 78 b 346 -18 522 -3 432 -18 b 93 257 169 -18 93 47 l 93 732 l 286 732 l 286 269 b 414 140 286 171 317 140 b 561 310 515 140 561 174 l 561 732 l 754 732 l 754 0 l 572 0 m 513 828 l 379 828 l 182 1031 l 394 1031 "},"ú":{"ha":849,"x_min":0,"x_max":0,"o":"m 572 78 b 346 -18 522 -3 432 -18 b 93 257 169 -18 93 47 l 93 732 l 286 732 l 286 269 b 414 140 286 171 317 140 b 561 310 515 140 561 174 l 561 732 l 754 732 l 754 0 l 572 0 m 453 1031 l 667 1031 l 468 828 l 335 828 "},"û":{"ha":849,"x_min":0,"x_max":0,"o":"m 572 78 b 346 -18 522 -3 432 -18 b 93 257 169 -18 93 47 l 93 732 l 286 732 l 286 269 b 414 140 286 171 317 140 b 561 310 515 140 561 174 l 561 732 l 754 732 l 754 0 l 572 0 m 338 1031 l 511 1031 l 664 829 l 508 829 l 422 939 l 340 829 l 185 829 "},"ü":{"ha":849,"x_min":0,"x_max":0,"o":"m 572 78 b 346 -18 522 -3 432 -18 b 93 257 169 -18 93 47 l 93 732 l 286 732 l 286 269 b 414 140 286 171 317 140 b 561 310 515 140 561 174 l 561 732 l 754 732 l 754 0 l 572 0 m 464 924 b 563 1018 464 989 481 1018 b 663 924 644 1018 663 989 b 563 831 663 858 644 831 b 464 924 481 831 464 858 m 185 924 b 283 1018 185 989 201 1018 b 383 924 365 1018 383 989 b 283 831 383 858 365 831 b 185 924 201 831 185 858 "},"ý":{"ha":772,"x_min":0,"x_max":0,"o":"m 225 732 b 388 199 261 554 315 376 l 547 732 l 750 732 l 489 0 b 201 -294 407 -232 379 -294 b 104 -289 149 -294 104 -289 l 104 -137 b 136 -140 104 -137 122 -140 b 286 -19 211 -140 263 -132 b 13 732 172 231 82 482 m 415 1031 l 629 1031 l 431 828 l 297 828 "},"þ":{"ha":849,"x_min":0,"x_max":0,"o":"m 282 996 l 282 654 b 506 750 324 701 368 750 b 800 364 693 750 800 661 b 499 -18 800 128 732 -18 b 282 64 385 -18 335 3 l 282 -283 l 89 -283 l 89 996 m 275 354 b 440 140 275 206 306 140 b 601 365 571 140 601 203 b 446 592 601 536 568 592 b 275 354 321 592 275 535 "},"ÿ":{"ha":772,"x_min":0,"x_max":0,"o":"m 225 732 b 388 199 261 554 315 376 l 547 732 l 750 732 l 489 0 b 201 -294 407 -232 379 -294 b 104 -289 149 -294 104 -289 l 104 -137 b 136 -140 104 -137 122 -140 b 286 -19 211 -140 263 -132 b 13 732 172 231 82 482 m 426 924 b 525 1018 426 989 443 1018 b 625 924 607 1018 625 989 b 525 831 625 858 607 831 b 426 924 443 831 426 858 m 147 924 b 246 1018 147 989 164 1018 b 346 924 328 1018 346 989 b 246 831 346 858 328 831 b 147 924 164 831 147 858 "},"Ā":{"ha":1003,"x_min":0,"x_max":0,"o":"m 758 0 b 699 211 740 69 719 140 l 294 211 b 236 0 274 140 254 69 l 18 0 b 385 996 118 333 238 665 l 615 996 b 983 0 763 668 885 336 m 497 768 b 349 382 440 639 392 510 l 644 382 b 497 768 601 510 553 639 m 268 1207 l 731 1207 l 731 1097 l 268 1097 "},"ā":{"ha":772,"x_min":0,"x_max":0,"o":"m 67 510 b 382 750 76 699 185 750 b 692 536 585 750 692 696 l 692 0 l 507 0 l 507 56 b 282 -18 469 17 399 -18 b 44 185 107 -18 44 60 b 257 425 44 347 150 408 l 499 463 l 499 507 b 374 594 499 575 464 594 b 249 510 278 594 258 572 m 499 338 l 364 315 b 238 211 290 304 238 289 b 351 125 238 156 265 125 b 499 279 469 125 499 189 m 154 951 l 617 951 l 617 842 l 154 842 "},"Ă":{"ha":1003,"x_min":0,"x_max":0,"o":"m 758 0 b 699 211 740 69 719 140 l 294 211 b 236 0 274 140 254 69 l 18 0 b 385 996 118 333 238 665 l 615 996 b 983 0 763 668 885 336 m 497 768 b 349 382 440 639 392 510 l 644 382 b 497 768 601 510 553 639 m 724 1288 b 492 1086 713 1160 660 1086 b 271 1288 326 1086 281 1157 l 363 1288 b 501 1190 374 1217 385 1190 b 632 1288 593 1190 621 1207 "},"ă":{"ha":772,"x_min":0,"x_max":0,"o":"m 67 510 b 382 750 76 699 185 750 b 692 536 585 750 692 696 l 692 0 l 507 0 l 507 56 b 282 -18 469 17 399 -18 b 44 185 107 -18 44 60 b 257 425 44 347 150 408 l 499 463 l 499 507 b 374 594 499 575 464 594 b 249 510 278 594 258 572 m 499 338 l 364 315 b 238 211 290 304 238 289 b 351 125 238 156 265 125 b 499 279 469 125 499 189 m 613 1032 b 381 831 601 904 549 831 b 160 1032 215 831 169 901 l 251 1032 b 390 935 263 961 274 935 b 521 1032 482 935 510 951 "},"Ą":{"ha":1003,"x_min":0,"x_max":0,"o":"m 983 0 b 813 -147 983 0 813 -35 b 890 -221 813 -196 840 -221 b 983 -206 929 -221 983 -206 l 983 -279 b 842 -307 983 -279 939 -307 b 669 -179 724 -307 669 -265 b 760 0 669 -89 722 -31 l 758 0 b 699 211 740 69 719 140 l 294 211 b 236 0 274 140 254 69 l 18 0 b 385 996 118 333 238 665 l 615 996 b 983 0 763 668 885 336 m 497 768 b 349 382 440 639 392 510 l 644 382 b 497 768 601 510 553 639 "},"ą":{"ha":772,"x_min":0,"x_max":0,"o":"m 67 510 b 382 750 76 699 185 750 b 692 536 585 750 692 696 l 692 0 b 538 -147 692 0 538 -42 b 615 -221 538 -196 565 -221 b 708 -206 654 -221 708 -206 l 708 -279 b 567 -307 708 -279 664 -307 b 394 -179 449 -307 394 -265 b 507 0 394 -72 478 -15 l 507 56 b 282 -18 469 17 399 -18 b 44 185 107 -18 44 60 b 257 425 44 347 150 408 l 499 463 l 499 507 b 374 594 499 575 464 594 b 249 510 278 594 258 572 m 499 338 l 364 315 b 238 211 290 304 238 289 b 351 125 238 156 265 125 b 499 279 469 125 499 189 "},"Ć":{"ha":1003,"x_min":0,"x_max":0,"o":"m 943 328 b 514 -22 929 133 821 -22 b 63 493 214 -22 63 126 b 515 1018 63 851 206 1018 b 943 686 760 1018 910 914 l 738 686 b 515 843 714 775 685 843 b 271 475 346 843 271 742 b 518 153 271 268 326 153 b 738 328 656 153 721 196 m 522 1286 l 736 1286 l 538 1083 l 404 1083 "},"ć":{"ha":772,"x_min":0,"x_max":0,"o":"m 728 485 l 536 485 b 399 592 521 556 497 592 b 250 365 294 592 250 554 b 389 140 250 176 294 140 b 536 260 494 140 531 186 l 729 260 b 399 -18 714 96 640 -18 b 51 358 108 -18 51 146 b 408 750 51 592 121 750 b 729 485 619 750 710 664 m 407 1031 l 621 1031 l 422 828 l 289 828 "},"Ĉ":{"ha":1003,"x_min":0,"x_max":0,"o":"m 943 328 b 514 -22 929 133 821 -22 b 63 493 214 -22 63 126 b 515 1018 63 851 206 1018 b 943 686 760 1018 910 914 l 738 686 b 515 843 714 775 685 843 b 271 475 346 843 271 742 b 518 153 271 268 326 153 b 738 328 656 153 721 196 m 428 1286 l 601 1286 l 754 1085 l 599 1085 l 513 1194 l 431 1085 l 275 1085 "},"ĉ":{"ha":772,"x_min":0,"x_max":0,"o":"m 728 485 l 536 485 b 399 592 521 556 497 592 b 250 365 294 592 250 554 b 389 140 250 176 294 140 b 536 260 494 140 531 186 l 729 260 b 399 -18 714 96 640 -18 b 51 358 108 -18 51 146 b 408 750 51 592 121 750 b 729 485 619 750 710 664 m 313 1031 l 486 1031 l 639 829 l 483 829 l 397 939 l 315 829 l 160 829 "},"Ċ":{"ha":1003,"x_min":0,"x_max":0,"o":"m 943 328 b 514 -22 929 133 821 -22 b 63 493 214 -22 63 126 b 515 1018 63 851 206 1018 b 943 686 760 1018 910 914 l 738 686 b 515 843 714 775 685 843 b 271 475 346 843 271 742 b 518 153 271 268 326 153 b 738 328 656 153 721 196 m 404 1167 b 514 1271 404 1239 424 1271 b 625 1167 604 1271 625 1239 b 514 1064 625 1094 604 1064 b 404 1167 424 1064 404 1094 "},"ċ":{"ha":772,"x_min":0,"x_max":0,"o":"m 728 485 l 536 485 b 399 592 521 556 497 592 b 250 365 294 592 250 554 b 389 140 250 176 294 140 b 536 260 494 140 531 186 l 729 260 b 399 -18 714 96 640 -18 b 51 358 108 -18 51 146 b 408 750 51 592 121 750 b 729 485 619 750 710 664 m 289 911 b 399 1015 289 983 308 1015 b 510 911 489 1015 510 983 b 399 808 510 839 489 808 b 289 911 308 808 289 839 "},"Č":{"ha":1003,"x_min":0,"x_max":0,"o":"m 943 328 b 514 -22 929 133 821 -22 b 63 493 214 -22 63 126 b 515 1018 63 851 206 1018 b 943 686 760 1018 910 914 l 738 686 b 515 843 714 775 685 843 b 271 475 346 843 271 742 b 518 153 271 268 326 153 b 738 328 656 153 721 196 m 601 1085 l 426 1085 l 275 1288 l 431 1288 l 515 1178 l 599 1288 l 754 1288 "},"č":{"ha":772,"x_min":0,"x_max":0,"o":"m 728 485 l 536 485 b 399 592 521 556 497 592 b 250 365 294 592 250 554 b 389 140 250 176 294 140 b 536 260 494 140 531 186 l 729 260 b 399 -18 714 96 640 -18 b 51 358 108 -18 51 146 b 408 750 51 592 121 750 b 729 485 619 750 710 664 m 486 829 l 311 829 l 160 1032 l 315 1032 l 400 922 l 483 1032 l 639 1032 "},"Ď":{"ha":1003,"x_min":0,"x_max":0,"o":"m 519 996 b 946 503 833 996 946 860 b 518 0 946 160 826 0 l 104 0 l 104 996 m 310 825 l 310 171 l 492 171 b 738 501 692 171 738 247 b 469 825 738 772 708 825 m 574 1085 l 399 1085 l 247 1288 l 403 1288 l 488 1178 l 571 1288 l 726 1288 "},"ď":{"ha":849,"x_min":0,"x_max":0,"o":"m 576 0 l 576 69 b 358 -18 528 -6 453 -18 b 50 368 132 -17 50 131 b 356 750 50 653 167 750 b 569 668 478 750 538 710 l 569 996 l 763 996 l 763 0 m 575 367 b 417 592 575 547 526 592 b 249 371 282 592 249 525 b 413 140 249 179 300 140 b 575 367 519 140 575 175 m 881 996 l 1067 996 l 938 779 l 832 779 "},"Đ":{"ha":1003,"x_min":0,"x_max":0,"o":"m 519 996 b 946 503 833 996 946 860 b 518 0 946 197 864 0 l 104 0 l 104 433 l -3 433 l -3 594 l 104 594 l 104 996 m 307 825 l 307 594 l 532 594 l 532 433 l 307 433 l 307 171 l 492 171 b 735 501 692 171 735 247 b 469 825 735 810 671 825 "},"đ":{"ha":849,"x_min":0,"x_max":0,"o":"m 575 367 b 417 592 575 547 526 592 b 249 371 282 592 249 525 b 413 140 249 179 300 140 b 575 367 519 140 575 175 m 576 0 l 576 69 b 358 -18 525 -10 456 -18 b 50 368 132 -17 50 131 b 356 750 50 653 167 750 b 569 668 478 750 538 710 l 569 800 l 386 800 l 386 910 l 569 910 l 569 996 l 763 996 l 763 910 l 849 910 l 849 800 l 763 800 l 763 0 "},"Ē":{"ha":926,"x_min":0,"x_max":0,"o":"m 104 996 l 839 996 l 839 825 l 310 825 l 310 607 l 799 607 l 799 436 l 310 436 l 310 171 l 861 171 l 861 0 l 104 0 m 246 1207 l 708 1207 l 708 1097 l 246 1097 "},"ē":{"ha":772,"x_min":0,"x_max":0,"o":"m 522 210 l 719 210 b 386 -18 696 42 585 -18 b 36 374 160 -18 36 60 b 394 750 36 583 92 750 b 728 313 651 750 728 631 l 235 313 b 385 140 242 174 276 140 b 522 210 458 140 503 154 m 535 435 b 385 592 526 568 474 592 b 236 435 272 592 243 553 m 154 951 l 617 951 l 617 842 l 154 842 "},"Ĕ":{"ha":926,"x_min":0,"x_max":0,"o":"m 104 996 l 839 996 l 839 825 l 310 825 l 310 607 l 799 607 l 799 436 l 310 436 l 310 171 l 861 171 l 861 0 l 104 0 m 703 1288 b 471 1086 692 1160 639 1086 b 250 1288 306 1086 260 1157 l 342 1288 b 481 1190 353 1217 364 1190 b 611 1288 572 1190 600 1207 "},"ĕ":{"ha":772,"x_min":0,"x_max":0,"o":"m 522 210 l 719 210 b 386 -18 696 42 585 -18 b 36 374 160 -18 36 60 b 394 750 36 583 92 750 b 728 313 651 750 728 631 l 235 313 b 385 140 242 174 276 140 b 522 210 458 140 503 154 m 535 435 b 385 592 526 568 474 592 b 236 435 272 592 243 553 m 613 1032 b 381 831 601 904 549 831 b 160 1032 215 831 169 901 l 251 1032 b 390 935 263 961 274 935 b 521 1032 482 935 510 951 "},"Ė":{"ha":926,"x_min":0,"x_max":0,"o":"m 104 996 l 839 996 l 839 825 l 310 825 l 310 607 l 799 607 l 799 436 l 310 436 l 310 171 l 861 171 l 861 0 l 104 0 m 367 1167 b 476 1271 367 1239 386 1271 b 588 1167 567 1271 588 1239 b 476 1064 588 1094 567 1064 b 367 1167 386 1064 367 1094 "},"ė":{"ha":772,"x_min":0,"x_max":0,"o":"m 522 210 l 719 210 b 386 -18 696 42 585 -18 b 36 374 160 -18 36 60 b 394 750 36 583 92 750 b 728 313 651 750 728 631 l 235 313 b 385 140 242 174 276 140 b 522 210 458 140 503 154 m 535 435 b 385 592 526 568 474 592 b 236 435 272 592 243 553 m 275 911 b 385 1015 275 983 294 1015 b 496 911 475 1015 496 983 b 385 808 496 839 475 808 b 275 911 294 808 275 839 "},"Ę":{"ha":926,"x_min":0,"x_max":0,"o":"m 104 996 l 839 996 l 839 825 l 310 825 l 310 607 l 799 607 l 799 436 l 310 436 l 310 171 l 861 171 l 861 0 l 836 0 b 690 -147 836 0 690 -49 b 768 -221 690 -196 718 -221 b 861 -206 807 -221 861 -206 l 861 -279 b 719 -307 861 -279 817 -307 b 547 -179 601 -307 547 -265 b 658 0 547 -74 628 -17 l 104 0 "},"ę":{"ha":772,"x_min":0,"x_max":0,"o":"m 719 210 b 613 29 707 122 672 64 b 501 -147 575 7 501 -69 b 579 -221 501 -196 529 -221 b 672 -206 618 -221 672 -206 l 672 -279 b 531 -307 672 -279 628 -307 b 358 -179 413 -307 358 -265 b 444 -15 358 -96 408 -43 b 386 -18 426 -17 407 -18 b 36 374 160 -18 36 60 b 394 750 36 583 92 750 b 728 313 651 750 728 631 l 235 313 b 385 140 242 174 276 140 b 522 210 458 140 503 154 m 535 435 b 385 592 526 568 474 592 b 236 435 272 592 243 553 "},"Ě":{"ha":926,"x_min":0,"x_max":0,"o":"m 104 996 l 839 996 l 839 825 l 310 825 l 310 607 l 799 607 l 799 436 l 310 436 l 310 171 l 861 171 l 861 0 l 104 0 m 564 1085 l 389 1085 l 238 1288 l 393 1288 l 478 1178 l 561 1288 l 717 1288 "},"ě":{"ha":772,"x_min":0,"x_max":0,"o":"m 522 210 l 719 210 b 386 -18 696 42 585 -18 b 36 374 160 -18 36 60 b 394 750 36 583 92 750 b 728 313 651 750 728 631 l 235 313 b 385 140 242 174 276 140 b 522 210 458 140 503 154 m 535 435 b 385 592 526 568 474 592 b 236 435 272 592 243 553 m 472 829 l 297 829 l 146 1032 l 301 1032 l 386 922 l 469 1032 l 625 1032 "},"Ĝ":{"ha":1081,"x_min":0,"x_max":0,"o":"m 1017 418 b 550 -22 1017 88 835 -22 b 60 499 303 -22 60 71 b 550 1018 60 950 328 1018 b 1001 686 818 1018 982 919 l 796 686 b 556 843 783 783 729 843 b 268 497 365 843 268 771 b 551 153 268 210 374 153 b 811 364 754 153 811 217 l 581 364 l 581 535 l 1017 535 m 467 1286 l 640 1286 l 793 1085 l 638 1085 l 551 1194 l 469 1085 l 314 1085 "},"ĝ":{"ha":849,"x_min":0,"x_max":0,"o":"m 288 -76 b 425 -154 294 -112 304 -154 b 571 13 550 -154 571 -110 l 571 81 b 369 -1 531 25 474 -1 b 54 374 161 -1 54 104 b 357 750 54 640 158 750 b 581 653 497 750 556 696 l 581 732 l 764 732 l 764 50 b 407 -297 764 -151 747 -297 b 74 -76 206 -297 78 -246 m 253 371 b 407 157 253 214 288 157 b 572 378 533 157 572 221 b 406 592 572 532 535 592 b 253 371 299 592 253 550 m 338 1031 l 511 1031 l 664 829 l 508 829 l 422 939 l 340 829 l 185 829 "},"Ğ":{"ha":1081,"x_min":0,"x_max":0,"o":"m 1017 418 b 550 -22 1017 88 835 -22 b 60 499 303 -22 60 71 b 550 1018 60 950 328 1018 b 1001 686 818 1018 982 919 l 796 686 b 556 843 783 783 729 843 b 268 497 365 843 268 771 b 551 153 268 210 374 153 b 811 364 754 153 811 217 l 581 364 l 581 535 l 1017 535 m 781 1288 b 549 1086 769 1160 717 1086 b 328 1288 383 1086 338 1157 l 419 1288 b 558 1190 431 1217 442 1190 b 689 1288 650 1190 678 1207 "},"ğ":{"ha":849,"x_min":0,"x_max":0,"o":"m 288 -76 b 425 -154 294 -112 304 -154 b 571 13 550 -154 571 -110 l 571 81 b 369 -1 531 25 474 -1 b 54 374 161 -1 54 104 b 357 750 54 640 158 750 b 581 653 497 750 556 696 l 581 732 l 764 732 l 764 50 b 407 -297 764 -151 747 -297 b 74 -76 206 -297 78 -246 m 253 371 b 407 157 253 214 288 157 b 572 378 533 157 572 221 b 406 592 572 532 535 592 b 253 371 299 592 253 550 m 650 1032 b 418 831 639 904 586 831 b 197 1032 253 831 207 901 l 289 1032 b 428 935 300 961 311 935 b 558 1032 519 935 547 951 "},"Ġ":{"ha":1081,"x_min":0,"x_max":0,"o":"m 1017 418 b 550 -22 1017 88 835 -22 b 60 499 303 -22 60 71 b 550 1018 60 950 328 1018 b 1001 686 818 1018 982 919 l 796 686 b 556 843 783 783 729 843 b 268 497 365 843 268 771 b 551 153 268 210 374 153 b 811 364 754 153 811 217 l 581 364 l 581 535 l 1017 535 m 443 1167 b 553 1271 443 1239 463 1271 b 664 1167 643 1271 664 1239 b 553 1064 664 1094 643 1064 b 443 1167 463 1064 443 1094 "},"ġ":{"ha":849,"x_min":0,"x_max":0,"o":"m 288 -76 b 425 -154 294 -112 304 -154 b 571 13 550 -154 571 -110 l 571 81 b 369 -1 531 25 474 -1 b 54 374 161 -1 54 104 b 357 750 54 640 158 750 b 581 653 497 750 556 696 l 581 732 l 764 732 l 764 50 b 407 -297 764 -151 747 -297 b 74 -76 206 -297 78 -246 m 253 371 b 407 157 253 214 288 157 b 572 378 533 157 572 221 b 406 592 572 532 535 592 b 253 371 299 592 253 550 m 314 911 b 424 1015 314 983 333 1015 b 535 911 514 1015 535 983 b 424 808 535 839 514 808 b 314 911 333 808 314 839 "},"Ģ":{"ha":1081,"x_min":0,"x_max":0,"o":"m 1017 418 b 550 -22 1017 88 835 -22 b 60 499 303 -22 60 71 b 550 1018 60 950 328 1018 b 1001 686 818 1018 982 919 l 796 686 b 556 843 783 783 729 843 b 268 497 365 843 268 771 b 551 153 268 210 374 153 b 811 364 754 153 811 217 l 581 364 l 581 535 l 1017 535 m 457 -65 l 643 -65 l 514 -282 l 408 -282 "},"ģ":{"ha":849,"x_min":0,"x_max":0,"o":"m 504 821 l 318 821 l 447 1038 l 553 1038 m 288 -76 b 425 -154 294 -112 304 -154 b 571 13 550 -154 571 -110 l 571 81 b 369 -1 531 25 474 -1 b 54 374 161 -1 54 104 b 357 750 54 640 158 750 b 581 653 497 750 556 696 l 581 732 l 764 732 l 764 50 b 407 -297 764 -151 747 -297 b 74 -76 206 -297 78 -246 m 253 371 b 407 157 253 214 288 157 b 572 378 533 157 572 221 b 406 592 572 532 535 592 b 253 371 299 592 253 550 "},"Ĥ":{"ha":1003,"x_min":0,"x_max":0,"o":"m 100 996 l 306 996 l 306 613 l 696 613 l 696 996 l 901 996 l 901 0 l 696 0 l 696 442 l 306 442 l 306 0 l 100 0 m 414 1286 l 588 1286 l 740 1085 l 585 1085 l 499 1194 l 417 1085 l 261 1085 "},"ĥ":{"ha":849,"x_min":0,"x_max":0,"o":"m 285 665 b 493 750 331 738 418 750 b 756 413 711 750 756 644 l 756 0 l 563 0 l 563 378 b 439 592 563 544 563 592 b 285 401 311 592 285 540 l 285 0 l 92 0 l 92 996 l 285 996 m 338 1286 l 511 1286 l 664 1085 l 508 1085 l 422 1194 l 340 1085 l 185 1085 "},"Ħ":{"ha":1003,"x_min":0,"x_max":0,"o":"m 0 842 l 100 842 l 100 996 l 306 996 l 306 842 l 696 842 l 696 996 l 901 996 l 901 842 l 1003 842 l 1003 732 l 901 732 l 901 0 l 696 0 l 696 442 l 306 442 l 306 0 l 100 0 l 100 732 l 0 732 m 696 613 l 696 732 l 306 732 l 306 613 "},"ħ":{"ha":849,"x_min":0,"x_max":0,"o":"m 285 910 l 463 910 l 463 800 l 285 800 l 285 665 b 493 750 331 738 418 750 b 756 413 711 750 756 644 l 756 0 l 563 0 l 563 378 b 439 592 563 544 563 592 b 285 401 311 592 285 540 l 285 0 l 92 0 l 92 800 l 0 800 l 0 910 l 92 910 l 92 996 l 285 996 "},"Ĩ":{"ha":386,"x_min":0,"x_max":0,"o":"m 90 996 l 296 996 l 296 0 l 90 0 m -53 1093 b 92 1265 -53 1201 -11 1265 b 290 1213 186 1265 217 1213 b 351 1269 333 1213 342 1231 l 440 1269 b 306 1101 440 1147 400 1101 b 96 1153 207 1101 163 1153 b 33 1093 51 1153 38 1129 "},"ĩ":{"ha":386,"x_min":0,"x_max":0,"o":"m 96 732 l 289 732 l 289 0 l 96 0 m -53 838 b 92 1010 -53 946 -11 1010 b 290 957 186 1010 217 957 b 351 1014 333 957 342 975 l 440 1014 b 306 846 440 892 400 846 b 96 897 207 846 163 897 b 33 838 51 897 38 874 "},"Ī":{"ha":386,"x_min":0,"x_max":0,"o":"m 90 996 l 296 996 l 296 0 l 90 0 m -37 1207 l 425 1207 l 425 1097 l -37 1097 "},"ī":{"ha":386,"x_min":0,"x_max":0,"o":"m 96 732 l 289 732 l 289 0 l 96 0 m -37 951 l 425 951 l 425 842 l -37 842 "},"Ĭ":{"ha":386,"x_min":0,"x_max":0,"o":"m 90 996 l 296 996 l 296 0 l 90 0 m 419 1288 b 188 1086 408 1160 356 1086 b -33 1288 22 1086 -24 1157 l 58 1288 b 197 1190 69 1217 81 1190 b 328 1288 289 1190 317 1207 "},"ĭ":{"ha":386,"x_min":0,"x_max":0,"o":"m 96 732 l 289 732 l 289 0 l 96 0 m 419 1032 b 188 831 408 904 356 831 b -33 1032 22 831 -24 901 l 58 1032 b 197 935 69 961 81 935 b 328 1032 289 935 317 951 "},"Į":{"ha":386,"x_min":0,"x_max":0,"o":"m 296 0 b 150 -147 296 0 150 -49 b 228 -221 150 -196 178 -221 b 321 -206 267 -221 321 -206 l 321 -279 b 179 -307 321 -279 276 -307 b 7 -179 61 -307 7 -265 b 90 0 7 -87 54 -29 l 90 996 l 296 996 "},"į":{"ha":386,"x_min":0,"x_max":0,"o":"m 289 0 b 143 -147 289 0 143 -49 b 221 -221 143 -196 171 -221 b 314 -206 260 -221 314 -206 l 314 -279 b 172 -307 314 -279 269 -307 b 0 -179 54 -307 0 -265 b 96 1 0 -87 60 -26 l 96 732 l 289 732 m 82 911 b 192 1015 82 983 101 1015 b 303 911 282 1015 303 983 b 192 808 303 839 282 808 b 82 911 101 808 82 839 "},"İ":{"ha":386,"x_min":0,"x_max":0,"o":"m 90 996 l 296 996 l 296 0 l 90 0 m 83 1167 b 193 1271 83 1239 103 1271 b 304 1167 283 1271 304 1239 b 193 1064 304 1094 283 1064 b 83 1167 103 1064 83 1094 "},"ı":{"ha":386,"x_min":0,"x_max":0,"o":"m 96 732 l 289 732 l 289 0 l 96 0 "},"Ĳ":{"ha":854,"x_min":0,"x_max":0,"o":"m 104 996 l 310 996 l 310 492 l 104 492 m 750 996 l 750 288 b 431 -21 750 58 650 -21 b 104 353 165 -21 107 74 l 310 353 b 428 150 311 193 333 150 b 544 310 518 150 544 189 l 544 996 "},"ĳ":{"ha":717,"x_min":0,"x_max":0,"o":"m 96 732 l 289 732 l 289 0 l 96 0 m 82 911 b 192 1015 82 983 101 1015 b 303 911 282 1015 303 983 b 192 808 303 839 282 808 b 82 911 101 808 82 839 m 618 32 b 406 -294 618 -229 588 -294 b 324 -287 346 -294 324 -287 l 324 -131 b 360 -132 324 -131 347 -132 b 425 -36 400 -132 425 -117 l 425 732 l 618 732 m 411 911 b 521 1015 411 983 431 1015 b 632 911 611 1015 632 983 b 521 808 632 839 611 808 b 411 911 431 808 411 839 "},"Ĵ":{"ha":772,"x_min":0,"x_max":0,"o":"m 668 996 l 668 288 b 349 -21 668 58 568 -21 b 22 353 83 -21 25 78 l 228 353 b 346 150 229 193 251 150 b 463 310 436 150 463 189 l 463 996 m 479 1286 l 653 1286 l 806 1085 l 650 1085 l 564 1194 l 482 1085 l 326 1085 "},"ĵ":{"ha":386,"x_min":0,"x_max":0,"o":"m 288 32 b 75 -294 288 -229 257 -294 b -7 -287 15 -294 -7 -287 l -7 -131 b 29 -132 -7 -131 17 -132 b 94 -36 69 -132 94 -117 l 94 732 l 288 732 m 107 1031 l 281 1031 l 433 829 l 278 829 l 192 939 l 110 829 l -46 829 "},"Ķ":{"ha":1003,"x_min":0,"x_max":0,"o":"m 114 996 l 319 996 l 319 578 l 710 996 l 979 996 l 583 594 l 1001 0 l 736 0 l 440 447 l 319 324 l 319 0 l 114 0 m 432 -65 l 618 -65 l 489 -282 l 383 -282 "},"ķ":{"ha":772,"x_min":0,"x_max":0,"o":"m 94 996 l 288 996 l 288 461 l 525 732 l 763 732 l 507 454 l 772 0 l 549 0 l 371 318 l 288 232 l 288 0 l 94 0 m 317 -65 l 503 -65 l 374 -282 l 268 -282 "},"ĸ":{"ha":772,"x_min":0,"x_max":0,"o":"m 94 732 l 288 732 l 288 461 l 525 732 l 763 732 l 507 454 l 772 0 l 549 0 l 371 318 l 288 232 l 288 0 l 94 0 "},"Ĺ":{"ha":849,"x_min":0,"x_max":0,"o":"m 104 996 l 310 996 l 310 175 l 807 175 l 807 0 l 104 0 m 265 1286 l 479 1286 l 281 1083 l 147 1083 "},"ĺ":{"ha":386,"x_min":0,"x_max":0,"o":"m 96 996 l 289 996 l 289 0 l 96 0 m 243 1286 l 457 1286 l 258 1083 l 125 1083 "},"Ļ":{"ha":849,"x_min":0,"x_max":0,"o":"m 104 996 l 310 996 l 310 175 l 807 175 l 807 0 l 104 0 m 356 -65 l 542 -65 l 413 -282 l 307 -282 "},"ļ":{"ha":386,"x_min":0,"x_max":0,"o":"m 96 996 l 289 996 l 289 0 l 96 0 m 97 -65 l 283 -65 l 154 -282 l 49 -282 "},"Ľ":{"ha":849,"x_min":0,"x_max":0,"o":"m 104 996 l 310 996 l 310 175 l 807 175 l 807 0 l 104 0 m 428 996 l 614 996 l 485 779 l 379 779 "},"ľ":{"ha":386,"x_min":0,"x_max":0,"o":"m 96 996 l 289 996 l 289 0 l 96 0 m 408 996 l 594 996 l 465 779 l 360 779 "},"Ŀ":{"ha":849,"x_min":0,"x_max":0,"o":"m 104 996 l 310 996 l 310 175 l 807 175 l 807 0 l 104 0 m 494 479 b 604 583 494 551 514 583 b 715 479 694 583 715 551 b 604 376 715 407 694 376 b 494 479 514 376 494 407 "},"ŀ":{"ha":553,"x_min":0,"x_max":0,"o":"m 96 996 l 289 996 l 289 0 l 96 0 m 360 479 b 469 583 360 551 379 583 b 581 479 560 583 581 551 b 469 376 581 407 560 376 b 360 479 379 376 360 407 "},"Ł":{"ha":849,"x_min":0,"x_max":0,"o":"m 104 996 l 310 996 l 310 596 l 503 726 l 503 571 l 310 440 l 310 175 l 807 175 l 807 0 l 104 0 l 104 315 l -18 235 l -18 389 l 104 469 "},"ł":{"ha":386,"x_min":0,"x_max":0,"o":"m 96 996 l 289 996 l 289 654 l 400 726 l 400 583 l 289 511 l 289 0 l 96 0 l 96 390 l -14 318 l -14 461 l 96 535 "},"Ń":{"ha":1003,"x_min":0,"x_max":0,"o":"m 100 996 l 310 996 l 697 339 l 697 996 l 903 996 l 903 0 l 697 0 l 306 661 l 306 0 l 100 0 m 536 1286 l 750 1286 l 551 1083 l 418 1083 "},"ń":{"ha":849,"x_min":0,"x_max":0,"o":"m 563 421 b 438 592 563 533 561 592 b 285 347 300 592 285 519 l 285 0 l 92 0 l 92 732 l 275 732 l 275 638 b 519 750 328 708 385 750 b 756 447 707 750 756 669 l 756 0 l 563 0 m 418 1031 l 632 1031 l 433 828 l 300 828 "},"Ņ":{"ha":1003,"x_min":0,"x_max":0,"o":"m 100 996 l 310 996 l 697 339 l 697 996 l 903 996 l 903 0 l 697 0 l 306 661 l 306 0 l 100 0 m 404 -65 l 590 -65 l 461 -282 l 356 -282 "},"ņ":{"ha":849,"x_min":0,"x_max":0,"o":"m 563 421 b 438 592 563 533 561 592 b 285 347 300 592 285 519 l 285 0 l 92 0 l 92 732 l 275 732 l 275 638 b 519 750 328 708 385 750 b 756 447 707 750 756 669 l 756 0 l 563 0 m 342 -65 l 528 -65 l 399 -282 l 293 -282 "},"Ň":{"ha":1003,"x_min":0,"x_max":0,"o":"m 100 996 l 310 996 l 697 339 l 697 996 l 903 996 l 903 0 l 697 0 l 306 661 l 306 0 l 100 0 m 588 1085 l 413 1085 l 261 1288 l 417 1288 l 501 1178 l 585 1288 l 740 1288 "},"ň":{"ha":849,"x_min":0,"x_max":0,"o":"m 563 421 b 438 592 563 533 561 592 b 285 347 300 592 285 519 l 285 0 l 92 0 l 92 732 l 275 732 l 275 638 b 519 750 328 708 385 750 b 756 447 707 750 756 669 l 756 0 l 563 0 m 511 829 l 336 829 l 185 1032 l 340 1032 l 425 922 l 508 1032 l 664 1032 "},"ŉ":{"ha":849,"x_min":0,"x_max":0,"o":"m 563 421 b 438 592 563 533 561 592 b 285 347 300 592 285 519 l 285 0 l 92 0 l 92 732 l 275 732 l 275 638 b 519 750 328 708 385 750 b 756 447 707 750 756 669 l 756 0 l 563 0 m 172 996 l 358 996 l 229 779 l 124 779 "},"Ŋ":{"ha":1003,"x_min":0,"x_max":0,"o":"m 100 996 l 310 996 l 697 339 l 697 996 l 903 996 l 903 32 b 690 -294 903 -229 872 -294 b 594 -287 631 -294 594 -287 l 594 -131 b 631 -132 594 -131 618 -132 b 697 -36 671 -132 697 -117 l 697 0 l 306 661 l 306 0 l 100 0 "},"ŋ":{"ha":849,"x_min":0,"x_max":0,"o":"m 756 32 b 543 -294 756 -229 725 -294 b 461 -287 483 -294 461 -287 l 461 -131 b 497 -132 461 -131 485 -132 b 563 -36 538 -132 563 -117 l 563 421 b 438 592 563 533 561 592 b 285 347 300 592 285 519 l 285 0 l 92 0 l 92 732 l 275 732 l 275 638 b 519 750 328 708 385 750 b 756 447 707 750 756 669 "},"Ō":{"ha":1081,"x_min":0,"x_max":0,"o":"m 60 499 b 538 1018 60 950 313 1018 b 1021 499 775 1018 1021 942 b 542 -22 1021 63 783 -22 b 60 499 288 -22 60 71 m 268 493 b 549 153 268 204 360 153 b 813 504 688 153 813 181 b 536 843 813 758 735 843 b 268 493 351 843 268 769 m 308 1207 l 771 1207 l 771 1097 l 308 1097 "},"ō":{"ha":849,"x_min":0,"x_max":0,"o":"m 800 367 b 422 -18 800 99 661 -18 b 49 367 233 -18 49 56 b 424 751 49 631 182 751 b 800 367 665 751 800 631 m 601 368 b 424 593 601 532 557 593 b 247 367 294 593 247 535 b 425 140 247 197 294 140 b 601 368 553 140 601 196 m 193 951 l 656 951 l 656 842 l 193 842 "},"Ŏ":{"ha":1081,"x_min":0,"x_max":0,"o":"m 60 499 b 538 1018 60 950 313 1018 b 1021 499 775 1018 1021 942 b 542 -22 1021 63 783 -22 b 60 499 288 -22 60 71 m 268 493 b 549 153 268 204 360 153 b 813 504 688 153 813 181 b 536 843 813 758 735 843 b 268 493 351 843 268 769 m 767 1288 b 535 1086 756 1160 703 1086 b 314 1288 369 1086 324 1157 l 406 1288 b 544 1190 417 1217 428 1190 b 675 1288 636 1190 664 1207 "},"ŏ":{"ha":849,"x_min":0,"x_max":0,"o":"m 800 367 b 422 -18 800 99 661 -18 b 49 367 233 -18 49 56 b 424 751 49 631 182 751 b 800 367 665 751 800 631 m 601 368 b 424 593 601 532 557 593 b 247 367 294 593 247 535 b 425 140 247 197 294 140 b 601 368 553 140 601 196 m 650 1032 b 418 831 639 904 586 831 b 197 1032 253 831 207 901 l 289 1032 b 428 935 300 961 311 935 b 558 1032 519 935 547 951 "},"Ő":{"ha":1081,"x_min":0,"x_max":0,"o":"m 60 499 b 538 1018 60 950 313 1018 b 1021 499 775 1018 1021 942 b 542 -22 1021 63 783 -22 b 60 499 288 -22 60 71 m 268 493 b 549 153 268 204 360 153 b 813 504 688 153 813 181 b 536 843 813 758 735 843 b 268 493 351 843 268 769 m 411 1286 l 625 1286 l 426 1083 l 293 1083 m 711 1286 l 925 1286 l 726 1083 l 593 1083 "},"ő":{"ha":849,"x_min":0,"x_max":0,"o":"m 800 367 b 422 -18 800 99 661 -18 b 49 367 233 -18 49 56 b 424 751 49 631 182 751 b 800 367 665 751 800 631 m 601 368 b 424 593 601 532 557 593 b 247 367 294 593 247 535 b 425 140 247 197 294 140 b 601 368 553 140 601 196 m 296 1031 l 510 1031 l 311 828 l 178 828 m 596 1031 l 810 1031 l 611 828 l 478 828 "},"Œ":{"ha":1389,"x_min":0,"x_max":0,"o":"m 60 497 b 478 1018 60 913 251 1018 b 690 954 572 1018 640 1000 l 690 996 l 1331 996 l 1331 825 l 896 825 l 896 607 l 1297 607 l 1297 436 l 896 436 l 896 171 l 1338 171 l 1338 0 l 690 0 l 690 40 b 481 -22 642 -4 574 -22 b 60 497 229 -22 60 107 m 268 494 b 486 153 268 204 338 153 b 693 510 593 153 693 179 b 478 843 693 758 636 843 b 268 494 329 843 268 768 "},"œ":{"ha":1311,"x_min":0,"x_max":0,"o":"m 1258 210 b 929 -18 1235 36 1114 -18 b 667 75 796 -18 714 10 b 408 -18 613 11 529 -18 b 49 368 218 -18 49 56 b 410 750 49 629 168 750 b 672 651 533 750 618 719 b 933 750 725 714 792 750 b 1267 313 1190 750 1267 631 l 772 313 b 938 140 781 188 794 140 b 1061 210 1011 140 1042 147 m 574 368 b 410 592 574 532 543 592 b 247 367 281 592 247 535 b 411 140 247 197 281 140 b 574 368 539 140 574 194 m 1071 435 b 924 592 1063 568 1013 592 b 772 435 811 592 779 553 "},"Ŕ":{"ha":1003,"x_min":0,"x_max":0,"o":"m 104 996 l 536 996 b 924 697 743 996 924 990 b 729 404 924 503 843 431 l 989 0 l 739 0 l 494 392 l 310 392 l 310 0 l 104 0 m 310 825 l 310 563 l 494 563 b 715 704 660 563 715 579 b 507 825 715 804 681 825 m 508 1286 l 722 1286 l 524 1083 l 390 1083 "},"ŕ":{"ha":540,"x_min":0,"x_max":0,"o":"m 90 0 l 90 732 l 272 732 l 272 640 b 461 747 317 717 365 747 b 511 743 496 747 511 743 l 511 558 b 450 563 511 558 489 563 b 283 271 297 563 283 438 l 283 0 m 319 1031 l 533 1031 l 335 828 l 201 828 "},"Ŗ":{"ha":1003,"x_min":0,"x_max":0,"o":"m 104 996 l 536 996 b 924 697 743 996 924 990 b 729 404 924 503 843 431 l 989 0 l 739 0 l 494 392 l 310 392 l 310 0 l 104 0 m 310 825 l 310 563 l 494 563 b 715 704 660 563 715 579 b 507 825 715 804 681 825 m 432 -65 l 618 -65 l 489 -282 l 383 -282 "},"ŗ":{"ha":540,"x_min":0,"x_max":0,"o":"m 90 0 l 90 732 l 272 732 l 272 640 b 461 747 317 717 365 747 b 511 743 496 747 511 743 l 511 558 b 450 563 511 558 489 563 b 283 271 297 563 283 438 l 283 0 m 90 -65 l 276 -65 l 147 -282 l 42 -282 "},"Ř":{"ha":1003,"x_min":0,"x_max":0,"o":"m 104 996 l 536 996 b 924 697 743 996 924 990 b 729 404 924 503 843 431 l 989 0 l 739 0 l 494 392 l 310 392 l 310 0 l 104 0 m 310 825 l 310 563 l 494 563 b 715 704 660 563 715 579 b 507 825 715 804 681 825 m 574 1085 l 399 1085 l 247 1288 l 403 1288 l 488 1178 l 571 1288 l 726 1288 "},"ř":{"ha":540,"x_min":0,"x_max":0,"o":"m 90 0 l 90 732 l 272 732 l 272 640 b 461 747 317 717 365 747 b 511 743 496 747 511 743 l 511 558 b 450 563 511 558 489 563 b 283 271 297 563 283 438 l 283 0 m 385 829 l 210 829 l 58 1032 l 214 1032 l 299 922 l 382 1032 l 538 1032 "},"Ś":{"ha":926,"x_min":0,"x_max":0,"o":"m 261 313 b 482 153 269 208 285 153 b 663 269 586 153 663 168 b 547 388 663 331 635 364 l 306 453 b 78 725 185 485 78 543 b 451 1018 78 868 143 1018 b 840 704 744 1018 836 882 l 635 704 b 443 843 625 788 621 843 b 286 744 339 843 286 824 b 388 636 286 672 329 651 l 610 576 b 871 285 751 539 871 483 b 482 -22 871 4 631 -22 b 56 313 157 -22 68 106 m 471 1286 l 685 1286 l 486 1083 l 353 1083 "},"ś":{"ha":772,"x_min":0,"x_max":0,"o":"m 238 225 b 392 125 244 146 288 125 b 528 196 493 125 528 144 b 442 271 528 238 508 253 l 239 319 b 67 521 132 346 67 392 b 388 750 67 668 154 750 b 699 524 567 750 689 701 l 506 524 b 385 607 496 589 474 607 b 260 542 283 607 260 583 b 340 474 260 507 279 489 l 521 431 b 721 224 654 399 721 347 b 390 -18 721 51 590 -18 b 44 225 201 -18 53 44 m 407 1031 l 621 1031 l 422 828 l 289 828 "},"Ŝ":{"ha":926,"x_min":0,"x_max":0,"o":"m 261 313 b 482 153 269 208 285 153 b 663 269 586 153 663 168 b 547 388 663 331 635 364 l 306 453 b 78 725 185 485 78 543 b 451 1018 78 868 143 1018 b 840 704 744 1018 836 882 l 635 704 b 443 843 625 788 621 843 b 286 744 339 843 286 824 b 388 636 286 672 329 651 l 610 576 b 871 285 751 539 871 483 b 482 -22 871 4 631 -22 b 56 313 157 -22 68 106 m 363 1286 l 536 1286 l 689 1085 l 533 1085 l 447 1194 l 365 1085 l 210 1085 "},"ŝ":{"ha":772,"x_min":0,"x_max":0,"o":"m 238 225 b 392 125 244 146 288 125 b 528 196 493 125 528 144 b 442 271 528 238 508 253 l 239 319 b 67 521 132 346 67 392 b 388 750 67 668 154 750 b 699 524 567 750 689 701 l 506 524 b 385 607 496 589 474 607 b 260 542 283 607 260 583 b 340 474 260 507 279 489 l 521 431 b 721 224 654 399 721 347 b 390 -18 721 51 590 -18 b 44 225 201 -18 53 44 m 299 1031 l 472 1031 l 625 829 l 469 829 l 383 939 l 301 829 l 146 829 "},"Ş":{"ha":926,"x_min":0,"x_max":0,"o":"m 460 -306 b 308 -278 364 -306 308 -278 l 319 -207 b 433 -224 319 -207 367 -224 b 515 -171 492 -224 515 -211 b 457 -125 515 -136 497 -125 l 408 -125 l 424 -21 b 56 313 146 -6 67 118 l 261 313 b 482 153 269 208 285 153 b 663 269 586 153 663 168 b 547 388 663 331 635 364 l 306 453 b 78 725 185 485 78 543 b 451 1018 78 868 143 1018 b 840 704 744 1018 836 882 l 635 704 b 443 843 625 788 621 843 b 286 744 339 843 286 824 b 388 636 286 672 329 651 l 610 576 b 871 285 751 539 871 483 b 494 -22 871 13 644 -21 l 490 -51 l 504 -51 b 644 -178 571 -51 644 -76 b 460 -306 644 -267 590 -306 "},"ş":{"ha":772,"x_min":0,"x_max":0,"o":"m 383 -306 b 232 -278 288 -306 232 -278 l 243 -207 b 357 -224 243 -207 290 -224 b 439 -171 415 -224 439 -211 b 381 -125 439 -136 421 -125 l 332 -125 l 347 -17 b 44 225 179 -7 51 58 l 238 225 b 392 125 244 146 288 125 b 528 196 493 125 528 144 b 442 271 528 238 508 253 l 239 319 b 67 521 132 346 67 392 b 388 750 67 668 154 750 b 699 524 567 750 689 701 l 506 524 b 385 607 496 589 474 607 b 260 542 283 607 260 583 b 340 474 260 507 279 489 l 521 431 b 721 224 654 399 721 347 b 419 -17 721 60 603 -10 l 414 -51 l 428 -51 b 568 -178 494 -51 568 -76 b 383 -306 568 -267 514 -306 "},"Š":{"ha":926,"x_min":0,"x_max":0,"o":"m 261 313 b 482 153 269 208 285 153 b 663 269 586 153 663 168 b 547 388 663 331 635 364 l 306 453 b 78 725 185 485 78 543 b 451 1018 78 868 143 1018 b 840 704 744 1018 836 882 l 635 704 b 443 843 625 788 621 843 b 286 744 339 843 286 824 b 388 636 286 672 329 651 l 610 576 b 871 285 751 539 871 483 b 482 -22 871 4 631 -22 b 56 313 157 -22 68 106 m 549 1085 l 374 1085 l 222 1288 l 378 1288 l 463 1178 l 546 1288 l 701 1288 "},"š":{"ha":772,"x_min":0,"x_max":0,"o":"m 238 225 b 392 125 244 146 288 125 b 528 196 493 125 528 144 b 442 271 528 238 508 253 l 239 319 b 67 521 132 346 67 392 b 388 750 67 668 154 750 b 699 524 567 750 689 701 l 506 524 b 385 607 496 589 474 607 b 260 542 283 607 260 583 b 340 474 260 507 279 489 l 521 431 b 721 224 654 399 721 347 b 390 -18 721 51 590 -18 b 44 225 201 -18 53 44 m 472 829 l 297 829 l 146 1032 l 301 1032 l 386 922 l 469 1032 l 625 1032 "},"Ţ":{"ha":849,"x_min":0,"x_max":0,"o":"m 322 821 l 22 821 l 22 996 l 826 996 l 826 821 l 528 821 l 528 0 l 458 0 l 450 -51 l 464 -51 b 604 -178 531 -51 604 -76 b 419 -306 604 -267 550 -306 b 268 -278 324 -306 268 -278 l 279 -207 b 393 -224 279 -207 326 -224 b 475 -171 451 -224 475 -211 b 417 -125 475 -136 457 -125 l 368 -125 l 386 0 l 322 0 "},"ţ":{"ha":463,"x_min":0,"x_max":0,"o":"m 256 -306 b 104 -278 160 -306 104 -278 l 115 -207 b 229 -224 115 -207 163 -224 b 311 -171 288 -224 311 -211 b 253 -125 311 -136 293 -125 l 204 -125 l 222 -6 b 111 260 111 13 111 92 l 111 576 l 15 576 l 15 732 l 111 732 l 111 913 l 304 913 l 304 732 l 429 732 l 429 576 l 304 576 l 304 263 b 382 140 304 160 304 140 b 429 143 411 140 429 143 l 429 0 b 293 -11 429 0 363 -11 l 286 -51 l 300 -51 b 440 -178 367 -51 440 -76 b 256 -306 440 -267 386 -306 "},"Ť":{"ha":849,"x_min":0,"x_max":0,"o":"m 322 821 l 22 821 l 22 996 l 826 996 l 826 821 l 528 821 l 528 0 l 322 0 m 511 1085 l 336 1085 l 185 1288 l 340 1288 l 425 1178 l 508 1288 l 664 1288 "},"ť":{"ha":463,"x_min":0,"x_max":0,"o":"m 429 576 l 304 576 l 304 263 b 382 140 304 160 304 140 b 429 143 411 140 429 143 l 429 0 b 292 -11 429 0 363 -11 b 111 260 111 -11 111 63 l 111 576 l 15 576 l 15 732 l 111 732 l 111 913 l 304 913 l 304 732 l 429 732 m 422 996 l 608 996 l 479 779 l 374 779 "},"Ŧ":{"ha":849,"x_min":0,"x_max":0,"o":"m 322 433 l 157 433 l 157 594 l 322 594 l 322 821 l 22 821 l 22 996 l 826 996 l 826 821 l 528 821 l 528 594 l 693 594 l 693 433 l 528 433 l 528 0 l 322 0 "},"ŧ":{"ha":463,"x_min":0,"x_max":0,"o":"m 429 576 l 304 576 l 304 454 l 429 454 l 429 299 l 304 299 l 304 263 b 382 140 304 160 304 140 b 429 143 411 140 429 143 l 429 0 b 292 -11 429 0 363 -11 b 111 260 111 -11 111 63 l 111 299 l 15 299 l 15 454 l 111 454 l 111 576 l 15 576 l 15 732 l 111 732 l 111 913 l 304 913 l 304 732 l 429 732 "},"Ũ":{"ha":1003,"x_min":0,"x_max":0,"o":"m 307 996 l 307 471 b 504 153 307 218 318 153 b 696 463 675 153 696 207 l 696 996 l 901 996 l 901 338 b 511 -22 901 31 744 -22 b 101 340 264 -22 101 38 l 101 996 m 254 1093 b 399 1265 254 1201 296 1265 b 597 1213 493 1265 524 1213 b 658 1269 640 1213 649 1231 l 747 1269 b 613 1101 747 1147 707 1101 b 403 1153 514 1101 469 1153 b 340 1093 358 1153 344 1129 "},"ũ":{"ha":849,"x_min":0,"x_max":0,"o":"m 572 78 b 346 -18 522 -3 432 -18 b 93 257 169 -18 93 47 l 93 732 l 286 732 l 286 269 b 414 140 286 171 317 140 b 561 310 515 140 561 174 l 561 732 l 754 732 l 754 0 l 572 0 m 178 838 b 322 1010 178 946 219 1010 b 521 957 417 1010 447 957 b 582 1014 564 957 572 975 l 671 1014 b 536 846 671 892 631 846 b 326 897 438 846 393 897 b 264 838 282 897 268 874 "},"Ū":{"ha":1003,"x_min":0,"x_max":0,"o":"m 307 996 l 307 471 b 504 153 307 218 318 153 b 696 463 675 153 696 207 l 696 996 l 901 996 l 901 338 b 511 -22 901 31 744 -22 b 101 340 264 -22 101 38 l 101 996 m 269 1207 l 732 1207 l 732 1097 l 269 1097 "},"ū":{"ha":849,"x_min":0,"x_max":0,"o":"m 572 78 b 346 -18 522 -3 432 -18 b 93 257 169 -18 93 47 l 93 732 l 286 732 l 286 269 b 414 140 286 171 317 140 b 561 310 515 140 561 174 l 561 732 l 754 732 l 754 0 l 572 0 m 193 951 l 656 951 l 656 842 l 193 842 "},"Ŭ":{"ha":1003,"x_min":0,"x_max":0,"o":"m 307 996 l 307 471 b 504 153 307 218 318 153 b 696 463 675 153 696 207 l 696 996 l 901 996 l 901 338 b 511 -22 901 31 744 -22 b 101 340 264 -22 101 38 l 101 996 m 728 1288 b 496 1086 717 1160 664 1086 b 275 1288 331 1086 285 1157 l 367 1288 b 506 1190 378 1217 389 1190 b 636 1288 597 1190 625 1207 "},"ŭ":{"ha":849,"x_min":0,"x_max":0,"o":"m 572 78 b 346 -18 522 -3 432 -18 b 93 257 169 -18 93 47 l 93 732 l 286 732 l 286 269 b 414 140 286 171 317 140 b 561 310 515 140 561 174 l 561 732 l 754 732 l 754 0 l 572 0 m 650 1032 b 418 831 639 904 586 831 b 197 1032 253 831 207 901 l 289 1032 b 428 935 300 961 311 935 b 558 1032 519 935 547 951 "},"Ů":{"ha":1003,"x_min":0,"x_max":0,"o":"m 307 996 l 307 471 b 504 153 307 218 318 153 b 696 463 675 153 696 207 l 696 996 l 901 996 l 901 338 b 511 -22 901 31 744 -22 b 101 340 264 -22 101 38 l 101 996 m 660 1193 b 501 1039 660 1082 596 1039 b 343 1193 406 1039 343 1082 b 501 1347 343 1303 406 1347 b 660 1193 597 1347 660 1304 m 572 1193 b 501 1264 572 1242 550 1264 b 431 1193 451 1264 431 1242 b 501 1122 431 1143 453 1122 b 572 1193 550 1122 572 1143 "},"ů":{"ha":849,"x_min":0,"x_max":0,"o":"m 572 78 b 346 -18 522 -3 432 -18 b 93 257 169 -18 93 47 l 93 732 l 286 732 l 286 269 b 414 140 286 171 317 140 b 561 310 515 140 561 174 l 561 732 l 754 732 l 754 0 l 572 0 m 582 938 b 424 783 582 826 518 783 b 265 938 328 783 265 826 b 424 1092 265 1047 328 1092 b 582 938 519 1092 582 1049 m 494 938 b 424 1008 494 986 472 1008 b 353 938 374 1008 353 986 b 424 867 353 888 375 867 b 494 938 472 867 494 888 "},"Ű":{"ha":1003,"x_min":0,"x_max":0,"o":"m 307 996 l 307 471 b 504 153 307 218 318 153 b 696 463 675 153 696 207 l 696 996 l 901 996 l 901 338 b 511 -22 901 31 744 -22 b 101 340 264 -22 101 38 l 101 996 m 372 1286 l 586 1286 l 388 1083 l 254 1083 m 672 1286 l 886 1286 l 688 1083 l 554 1083 "},"ű":{"ha":849,"x_min":0,"x_max":0,"o":"m 572 78 b 346 -18 522 -3 432 -18 b 93 257 169 -18 93 47 l 93 732 l 286 732 l 286 269 b 414 140 286 171 317 140 b 561 310 515 140 561 174 l 561 732 l 754 732 l 754 0 l 572 0 m 296 1031 l 510 1031 l 311 828 l 178 828 m 596 1031 l 810 1031 l 611 828 l 478 828 "},"Ų":{"ha":1003,"x_min":0,"x_max":0,"o":"m 307 996 l 307 471 b 504 153 307 218 318 153 b 696 463 675 153 696 207 l 696 996 l 901 996 l 901 338 b 778 32 901 172 856 81 b 647 -147 753 17 647 -60 b 725 -221 647 -196 675 -221 b 818 -206 764 -221 818 -206 l 818 -279 b 676 -307 818 -279 774 -307 b 504 -179 558 -307 504 -265 b 586 -19 504 -99 550 -47 b 511 -22 563 -21 536 -22 b 101 340 264 -22 101 38 l 101 996 "},"ų":{"ha":849,"x_min":0,"x_max":0,"o":"m 572 78 b 346 -18 522 -3 432 -18 b 93 257 169 -18 93 47 l 93 732 l 286 732 l 286 269 b 414 140 286 171 317 140 b 561 310 515 140 561 174 l 561 732 l 754 732 l 754 0 b 608 -147 754 0 608 -49 b 686 -221 608 -196 636 -221 b 779 -206 725 -221 779 -206 l 779 -279 b 638 -307 779 -279 735 -307 b 465 -179 519 -307 465 -265 b 572 0 465 -76 540 -19 "},"Ŵ":{"ha":1311,"x_min":0,"x_max":0,"o":"m 282 0 b 15 996 169 332 79 664 l 232 996 b 390 283 269 758 322 521 l 543 996 l 769 996 l 928 279 b 1088 996 999 518 1053 757 l 1296 996 b 1029 0 1232 664 1142 332 l 811 0 l 656 724 l 499 0 m 569 1286 l 743 1286 l 896 1085 l 740 1085 l 654 1194 l 572 1085 l 417 1085 "},"ŵ":{"ha":1081,"x_min":0,"x_max":0,"o":"m 225 0 b 10 732 131 244 60 488 l 210 732 b 331 221 232 561 272 392 l 444 732 l 636 732 l 753 221 b 875 732 813 392 853 561 l 1071 732 b 851 0 1018 488 949 244 l 644 0 l 538 471 l 433 0 m 451 1031 l 625 1031 l 778 829 l 622 829 l 536 939 l 454 829 l 299 829 "},"Ŷ":{"ha":926,"x_min":0,"x_max":0,"o":"m 364 390 b 13 996 219 592 107 794 l 254 996 b 471 576 307 856 381 717 b 679 996 560 717 628 856 l 914 996 b 569 388 821 793 710 590 l 569 0 l 364 0 m 385 1286 l 558 1286 l 711 1085 l 556 1085 l 469 1194 l 388 1085 l 232 1085 "},"ŷ":{"ha":772,"x_min":0,"x_max":0,"o":"m 225 732 b 388 199 261 554 315 376 l 547 732 l 750 732 l 489 0 b 201 -294 407 -232 379 -294 b 104 -289 149 -294 104 -289 l 104 -137 b 136 -140 104 -137 122 -140 b 286 -19 211 -140 263 -132 b 13 732 172 231 82 482 m 301 1031 l 475 1031 l 628 829 l 472 829 l 386 939 l 304 829 l 149 829 "},"Ÿ":{"ha":926,"x_min":0,"x_max":0,"o":"m 364 390 b 13 996 219 592 107 794 l 254 996 b 471 576 307 856 381 717 b 679 996 560 717 628 856 l 914 996 b 569 388 821 793 710 590 l 569 0 l 364 0 m 503 1179 b 601 1274 503 1244 519 1274 b 701 1179 683 1274 701 1244 b 601 1086 701 1114 683 1086 b 503 1179 519 1086 503 1114 m 224 1179 b 322 1274 224 1244 240 1274 b 422 1179 404 1274 422 1244 b 322 1086 422 1114 404 1086 b 224 1179 240 1086 224 1114 "},"Ź":{"ha":849,"x_min":0,"x_max":0,"o":"m 29 168 l 547 825 l 58 825 l 58 996 l 808 996 l 808 835 l 279 175 l 818 175 l 818 0 l 29 0 m 446 1286 l 660 1286 l 461 1083 l 328 1083 "},"ź":{"ha":694,"x_min":0,"x_max":0,"o":"m 26 146 l 401 576 l 53 576 l 53 732 l 650 732 l 650 582 l 276 158 l 667 158 l 667 0 l 26 0 m 368 1031 l 582 1031 l 383 828 l 250 828 "},"Ż":{"ha":849,"x_min":0,"x_max":0,"o":"m 29 168 l 547 825 l 58 825 l 58 996 l 808 996 l 808 835 l 279 175 l 818 175 l 818 0 l 29 0 m 328 1167 b 438 1271 328 1239 347 1271 b 549 1167 528 1271 549 1239 b 438 1064 549 1094 528 1064 b 328 1167 347 1064 328 1094 "},"ż":{"ha":694,"x_min":0,"x_max":0,"o":"m 26 146 l 401 576 l 53 576 l 53 732 l 650 732 l 650 582 l 276 158 l 667 158 l 667 0 l 26 0 m 236 911 b 346 1015 236 983 256 1015 b 457 911 436 1015 457 983 b 346 808 457 839 436 808 b 236 911 256 808 236 839 "},"Ž":{"ha":849,"x_min":0,"x_max":0,"o":"m 29 168 l 547 825 l 58 825 l 58 996 l 808 996 l 808 835 l 279 175 l 818 175 l 818 0 l 29 0 m 511 1085 l 336 1085 l 185 1288 l 340 1288 l 425 1178 l 508 1288 l 664 1288 "},"ž":{"ha":694,"x_min":0,"x_max":0,"o":"m 26 146 l 401 576 l 53 576 l 53 732 l 650 732 l 650 582 l 276 158 l 667 158 l 667 0 l 26 0 m 433 829 l 258 829 l 107 1032 l 263 1032 l 347 922 l 431 1032 l 586 1032 "},"ƒ":{"ha":772,"x_min":0,"x_max":0,"o":"m 136 676 l 317 676 l 338 776 b 578 1014 371 917 411 1014 b 701 993 649 1014 701 993 l 701 843 b 621 856 701 843 658 856 b 525 769 553 856 533 817 l 510 676 l 667 676 l 667 539 l 489 539 l 399 14 b 143 -292 379 -101 346 -292 b 22 -269 74 -292 22 -269 l 22 -117 b 107 -131 22 -117 64 -131 b 213 61 181 -131 186 -90 l 294 539 l 136 539 "},"Ș":{"ha":926,"x_min":0,"x_max":0,"o":"m 261 313 b 482 153 269 208 285 153 b 663 269 586 153 663 168 b 547 388 663 331 635 364 l 306 453 b 78 725 185 485 78 543 b 451 1018 78 868 143 1018 b 840 704 744 1018 836 882 l 635 704 b 443 843 625 788 621 843 b 286 744 339 843 286 824 b 388 636 286 672 329 651 l 610 576 b 871 285 751 539 871 483 b 482 -22 871 4 631 -22 b 56 313 157 -22 68 106 m 394 -65 l 581 -65 l 451 -282 l 346 -282 "},"ș":{"ha":772,"x_min":0,"x_max":0,"o":"m 238 225 b 392 125 244 146 288 125 b 528 196 493 125 528 144 b 442 271 528 238 508 253 l 239 319 b 67 521 132 346 67 392 b 388 750 67 668 154 750 b 699 524 567 750 689 701 l 506 524 b 385 607 496 589 474 607 b 260 542 283 607 260 583 b 340 474 260 507 279 489 l 521 431 b 721 224 654 399 721 347 b 390 -18 721 51 590 -18 b 44 225 201 -18 53 44 m 317 -65 l 503 -65 l 374 -282 l 268 -282 "},"Ț":{"ha":849,"x_min":0,"x_max":0,"o":"m 322 821 l 22 821 l 22 996 l 826 996 l 826 821 l 528 821 l 528 0 l 322 0 m 329 -65 l 515 -65 l 386 -282 l 281 -282 "},"ț":{"ha":463,"x_min":0,"x_max":0,"o":"m 429 576 l 304 576 l 304 263 b 382 140 304 160 304 140 b 429 143 411 140 429 143 l 429 0 b 292 -11 429 0 363 -11 b 111 260 111 -11 111 63 l 111 576 l 15 576 l 15 732 l 111 732 l 111 913 l 304 913 l 304 732 l 429 732 m 176 -65 l 363 -65 l 233 -282 l 128 -282 "},"Ȧ":{"ha":1003,"x_min":0,"x_max":0,"o":"m 758 0 b 699 211 740 69 719 140 l 294 211 b 236 0 274 140 254 69 l 18 0 b 385 996 118 333 238 665 l 615 996 b 983 0 763 668 885 336 m 497 768 b 349 382 440 639 392 510 l 644 382 b 497 768 601 510 553 639 m 388 1167 b 497 1271 388 1239 407 1271 b 608 1167 588 1271 608 1239 b 497 1064 608 1094 588 1064 b 388 1167 407 1064 388 1094 "},"ȧ":{"ha":772,"x_min":0,"x_max":0,"o":"m 67 510 b 382 750 76 699 185 750 b 692 536 585 750 692 696 l 692 0 l 507 0 l 507 56 b 282 -18 469 17 399 -18 b 44 185 107 -18 44 60 b 257 425 44 347 150 408 l 499 463 l 499 507 b 374 594 499 575 464 594 b 249 510 278 594 258 572 m 499 338 l 364 315 b 238 211 290 304 238 289 b 351 125 238 156 265 125 b 499 279 469 125 499 189 m 275 911 b 385 1015 275 983 294 1015 b 496 911 475 1015 496 983 b 385 808 496 839 475 808 b 275 911 294 808 275 839 "},"Ȯ":{"ha":1081,"x_min":0,"x_max":0,"o":"m 60 499 b 538 1018 60 950 313 1018 b 1021 499 775 1018 1021 942 b 542 -22 1021 63 783 -22 b 60 499 288 -22 60 71 m 268 493 b 549 153 268 204 360 153 b 813 504 688 153 813 181 b 536 843 813 758 735 843 b 268 493 351 843 268 769 m 429 1167 b 539 1271 429 1239 449 1271 b 650 1167 629 1271 650 1239 b 539 1064 650 1094 629 1064 b 429 1167 449 1064 429 1094 "},"ȯ":{"ha":849,"x_min":0,"x_max":0,"o":"m 800 367 b 422 -18 800 99 661 -18 b 49 367 233 -18 49 56 b 424 751 49 631 182 751 b 800 367 665 751 800 631 m 601 368 b 424 593 601 532 557 593 b 247 367 294 593 247 535 b 425 140 247 197 294 140 b 601 368 553 140 601 196 m 314 911 b 424 1015 314 983 333 1015 b 535 911 514 1015 535 983 b 424 808 535 839 514 808 b 314 911 333 808 314 839 "},"Ȳ":{"ha":926,"x_min":0,"x_max":0,"o":"m 364 390 b 13 996 219 592 107 794 l 254 996 b 471 576 307 856 381 717 b 679 996 560 717 628 856 l 914 996 b 569 388 821 793 710 590 l 569 0 l 364 0 m 232 1207 l 694 1207 l 694 1097 l 232 1097 "},"ȳ":{"ha":772,"x_min":0,"x_max":0,"o":"m 225 732 b 388 199 261 554 315 376 l 547 732 l 750 732 l 489 0 b 201 -294 407 -232 379 -294 b 104 -289 149 -294 104 -289 l 104 -137 b 136 -140 104 -137 122 -140 b 286 -19 211 -140 263 -132 b 13 732 172 231 82 482 m 154 951 l 617 951 l 617 842 l 154 842 "},"ˆ":{"ha":463,"x_min":0,"x_max":0,"o":"m 144 1031 l 318 1031 l 471 829 l 315 829 l 229 939 l 147 829 l -8 829 "},"ˇ":{"ha":463,"x_min":0,"x_max":0,"o":"m 318 829 l 143 829 l -8 1032 l 147 1032 l 232 922 l 315 1032 l 471 1032 "},"˘":{"ha":463,"x_min":0,"x_max":0,"o":"m 457 1032 b 225 831 446 904 393 831 b 4 1032 60 831 14 901 l 96 1032 b 235 935 107 961 118 935 b 365 1032 326 935 354 951 "},"˙":{"ha":463,"x_min":0,"x_max":0,"o":"m 121 911 b 231 1015 121 983 140 1015 b 342 911 321 1015 342 983 b 231 808 342 839 321 808 b 121 911 140 808 121 839 "},"˚":{"ha":463,"x_min":0,"x_max":0,"o":"m 390 938 b 232 783 390 826 326 783 b 74 938 136 783 74 826 b 232 1092 74 1047 136 1092 b 390 938 328 1092 390 1049 m 303 938 b 232 1008 303 986 281 1008 b 161 938 182 1008 161 986 b 232 867 161 888 183 867 b 303 938 281 867 303 888 "},"˛":{"ha":463,"x_min":0,"x_max":0,"o":"m 376 6 l 376 0 b 231 -147 376 0 231 -49 b 308 -221 231 -196 258 -221 b 401 -206 347 -221 401 -206 l 401 -279 b 260 -307 401 -279 357 -307 b 88 -179 142 -307 88 -265 b 210 6 88 -50 210 6 "},"˜":{"ha":463,"x_min":0,"x_max":0,"o":"m -15 838 b 129 1010 -15 946 26 1010 b 328 957 224 1010 254 957 b 389 1014 371 957 379 975 l 478 1014 b 343 846 478 892 438 846 b 133 897 244 846 200 897 b 71 838 89 897 75 874 "},"˝":{"ha":463,"x_min":0,"x_max":0,"o":"m 143 1031 l 357 1031 l 158 828 l 25 828 m 443 1031 l 657 1031 l 458 828 l 325 828 "},"Ẁ":{"ha":1311,"x_min":0,"x_max":0,"o":"m 282 0 b 15 996 169 332 79 664 l 232 996 b 390 283 269 758 322 521 l 543 996 l 769 996 l 928 279 b 1088 996 999 518 1053 757 l 1296 996 b 1029 0 1232 664 1142 332 l 811 0 l 656 724 l 499 0 m 751 1083 l 618 1083 l 421 1286 l 633 1286 "},"ẁ":{"ha":1081,"x_min":0,"x_max":0,"o":"m 225 0 b 10 732 131 244 60 488 l 210 732 b 331 221 232 561 272 392 l 444 732 l 636 732 l 753 221 b 875 732 813 392 853 561 l 1071 732 b 851 0 1018 488 949 244 l 644 0 l 538 471 l 433 0 m 622 828 l 489 828 l 292 1031 l 504 1031 "},"Ẃ":{"ha":1311,"x_min":0,"x_max":0,"o":"m 282 0 b 15 996 169 332 79 664 l 232 996 b 390 283 269 758 322 521 l 543 996 l 769 996 l 928 279 b 1088 996 999 518 1053 757 l 1296 996 b 1029 0 1232 664 1142 332 l 811 0 l 656 724 l 499 0 m 676 1286 l 890 1286 l 692 1083 l 558 1083 "},"ẃ":{"ha":1081,"x_min":0,"x_max":0,"o":"m 225 0 b 10 732 131 244 60 488 l 210 732 b 331 221 232 561 272 392 l 444 732 l 636 732 l 753 221 b 875 732 813 392 853 561 l 1071 732 b 851 0 1018 488 949 244 l 644 0 l 538 471 l 433 0 m 575 1031 l 789 1031 l 590 828 l 457 828 "},"Ẅ":{"ha":1311,"x_min":0,"x_max":0,"o":"m 282 0 b 15 996 169 332 79 664 l 232 996 b 390 283 269 758 322 521 l 543 996 l 769 996 l 928 279 b 1088 996 999 518 1053 757 l 1296 996 b 1029 0 1232 664 1142 332 l 811 0 l 656 724 l 499 0 m 696 1179 b 794 1274 696 1244 713 1274 b 894 1179 876 1274 894 1244 b 794 1086 894 1114 876 1086 b 696 1179 713 1086 696 1114 m 417 1179 b 515 1274 417 1244 433 1274 b 615 1179 597 1274 615 1244 b 515 1086 615 1114 597 1086 b 417 1179 433 1086 417 1114 "},"ẅ":{"ha":1081,"x_min":0,"x_max":0,"o":"m 225 0 b 10 732 131 244 60 488 l 210 732 b 331 221 232 561 272 392 l 444 732 l 636 732 l 753 221 b 875 732 813 392 853 561 l 1071 732 b 851 0 1018 488 949 244 l 644 0 l 538 471 l 433 0 m 579 924 b 678 1018 579 989 596 1018 b 778 924 760 1018 778 989 b 678 831 778 858 760 831 b 579 924 596 831 579 858 m 300 924 b 399 1018 300 989 317 1018 b 499 924 481 1018 499 989 b 399 831 499 858 481 831 b 300 924 317 831 300 858 "},"Ẽ":{"ha":926,"x_min":0,"x_max":0,"o":"m 104 996 l 839 996 l 839 825 l 310 825 l 310 607 l 799 607 l 799 436 l 310 436 l 310 171 l 861 171 l 861 0 l 104 0 m 217 1093 b 361 1265 217 1201 258 1265 b 560 1213 456 1265 486 1213 b 621 1269 603 1213 611 1231 l 710 1269 b 575 1101 710 1147 669 1101 b 365 1153 476 1101 432 1153 b 303 1093 321 1153 307 1129 "},"ẽ":{"ha":772,"x_min":0,"x_max":0,"o":"m 522 210 l 719 210 b 386 -18 696 42 585 -18 b 36 374 160 -18 36 60 b 394 750 36 583 92 750 b 728 313 651 750 728 631 l 235 313 b 385 140 242 174 276 140 b 522 210 458 140 503 154 m 535 435 b 385 592 526 568 474 592 b 236 435 272 592 243 553 m 139 838 b 283 1010 139 946 181 1010 b 482 957 378 1010 408 957 b 543 1014 525 957 533 975 l 632 1014 b 497 846 632 892 592 846 b 288 897 399 846 354 897 b 225 838 243 897 229 874 "},"Ỳ":{"ha":926,"x_min":0,"x_max":0,"o":"m 364 390 b 13 996 219 592 107 794 l 254 996 b 471 576 307 856 381 717 b 679 996 560 717 628 856 l 914 996 b 569 388 821 793 710 590 l 569 0 l 364 0 m 544 1083 l 411 1083 l 214 1286 l 426 1286 "},"ỳ":{"ha":772,"x_min":0,"x_max":0,"o":"m 225 732 b 388 199 261 554 315 376 l 547 732 l 750 732 l 489 0 b 201 -294 407 -232 379 -294 b 104 -289 149 -294 104 -289 l 104 -137 b 136 -140 104 -137 122 -140 b 286 -19 211 -140 263 -132 b 13 732 172 231 82 482 m 454 828 l 321 828 l 124 1031 l 336 1031 "},"Ỹ":{"ha":926,"x_min":0,"x_max":0,"o":"m 364 390 b 13 996 219 592 107 794 l 254 996 b 471 576 307 856 381 717 b 679 996 560 717 628 856 l 914 996 b 569 388 821 793 710 590 l 569 0 l 364 0 m 217 1093 b 361 1265 217 1201 258 1265 b 560 1213 456 1265 486 1213 b 621 1269 603 1213 611 1231 l 710 1269 b 575 1101 710 1147 669 1101 b 365 1153 476 1101 432 1153 b 303 1093 321 1153 307 1129 "},"ỹ":{"ha":772,"x_min":0,"x_max":0,"o":"m 225 732 b 388 199 261 554 315 376 l 547 732 l 750 732 l 489 0 b 201 -294 407 -232 379 -294 b 104 -289 149 -294 104 -289 l 104 -137 b 136 -140 104 -137 122 -140 b 286 -19 211 -140 263 -132 b 13 732 172 231 82 482 m 139 838 b 283 1010 139 946 181 1010 b 482 957 378 1010 408 957 b 543 1014 525 957 533 975 l 632 1014 b 497 846 632 892 592 846 b 288 897 399 846 354 897 b 225 838 243 897 229 874 "},"–":{"ha":772,"x_min":0,"x_max":0,"o":"m 39 451 l 733 451 l 733 306 l 39 306 "},"—":{"ha":1389,"x_min":0,"x_max":0,"o":"m -3 451 l 1392 451 l 1392 306 l -3 306 "},"‘":{"ha":386,"x_min":0,"x_max":0,"o":"m 194 807 b 299 710 281 807 299 778 b 194 610 299 640 281 610 b 89 728 107 610 89 642 b 274 1004 89 953 136 1004 l 274 918 b 194 807 215 918 201 899 "},"’":{"ha":386,"x_min":0,"x_max":0,"o":"m 192 807 b 88 904 106 807 88 836 b 192 1004 88 974 106 1004 b 297 886 283 1004 297 972 b 113 610 297 661 250 610 l 113 696 b 192 807 171 696 185 715 "},"‚":{"ha":386,"x_min":0,"x_max":0,"o":"m 190 -8 b 86 89 104 -8 86 21 b 190 189 86 158 104 189 b 296 71 269 189 296 149 b 111 -206 296 -154 249 -206 l 111 -119 b 190 -8 169 -119 183 -100 "},"“":{"ha":694,"x_min":0,"x_max":0,"o":"m 508 807 b 613 710 594 807 613 778 b 508 610 613 640 594 610 b 403 728 421 610 403 638 b 588 1004 403 953 450 1004 l 588 918 b 508 807 529 918 515 899 m 186 807 b 290 710 272 807 290 778 b 186 610 290 640 272 610 b 81 728 99 610 81 638 b 265 1004 81 953 128 1004 l 265 918 b 186 807 207 918 193 899 "},"”":{"ha":694,"x_min":0,"x_max":0,"o":"m 185 807 b 81 904 99 807 81 836 b 185 1004 81 974 99 1004 b 290 886 268 1004 290 976 b 106 610 290 661 243 610 l 106 696 b 185 807 164 696 178 715 m 507 807 b 403 904 421 807 403 836 b 507 1004 403 974 421 1004 b 613 886 594 1004 613 976 b 428 610 613 661 565 610 l 428 696 b 507 807 486 696 500 715 "},"„":{"ha":694,"x_min":0,"x_max":0,"o":"m 185 -8 b 81 89 99 -8 81 21 b 185 189 81 158 99 189 b 290 71 264 189 290 149 b 106 -206 290 -154 243 -206 l 106 -119 b 185 -8 164 -119 178 -100 m 507 -8 b 403 89 421 -8 403 21 b 507 189 403 158 421 189 b 613 71 586 189 613 149 b 428 -206 613 -154 565 -206 l 428 -119 b 507 -8 486 -119 500 -100 "},"†":{"ha":772,"x_min":0,"x_max":0,"o":"m 294 544 l 50 544 l 50 701 l 294 701 l 294 992 l 478 992 l 478 701 l 722 701 l 722 544 l 478 544 l 478 -237 l 294 -237 "},"‡":{"ha":772,"x_min":0,"x_max":0,"o":"m 293 38 l 50 38 l 50 194 l 293 194 l 293 564 l 50 564 l 50 721 l 293 721 l 293 992 l 478 992 l 478 721 l 722 721 l 722 564 l 478 564 l 478 194 l 722 194 l 722 38 l 478 38 l 478 -237 l 293 -237 "},"•":{"ha":486,"x_min":0,"x_max":0,"o":"m 24 497 b 243 715 24 653 88 715 b 463 497 397 715 463 653 b 243 276 463 340 397 276 b 24 497 88 276 24 340 "},"…":{"ha":1389,"x_min":0,"x_max":0,"o":"m 121 94 b 231 199 121 167 140 199 b 342 94 321 199 342 167 b 231 -8 342 22 321 -8 b 121 94 140 -8 121 22 m 1046 94 b 1156 199 1046 167 1065 199 b 1267 94 1246 199 1267 167 b 1156 -8 1267 22 1246 -8 b 1046 94 1065 -8 1046 22 m 583 94 b 693 199 583 167 603 199 b 804 94 783 199 804 167 b 693 -8 804 22 783 -8 b 583 94 603 -8 583 22 "},"‰":{"ha":1389,"x_min":0,"x_max":0,"o":"m 135 758 b 211 650 135 678 160 650 b 288 758 263 650 288 678 b 211 867 288 839 263 867 b 135 758 160 867 135 839 m -3 758 b 213 994 -3 915 63 994 b 425 760 356 994 425 922 b 211 522 425 606 363 522 b -3 758 60 522 -3 606 m 644 994 l 757 994 l 251 -29 l 138 -29 m 610 211 b 686 103 610 131 635 103 b 763 211 738 103 763 131 b 686 319 763 292 738 319 b 610 211 635 319 610 292 m 472 211 b 688 447 472 368 538 447 b 900 213 831 447 900 375 b 686 -25 900 58 838 -25 b 472 211 535 -25 472 58 m 1100 211 b 1176 103 1100 131 1125 103 b 1253 211 1228 103 1253 131 b 1176 319 1253 292 1228 319 b 1100 211 1125 319 1100 292 m 963 211 b 1178 447 963 368 1028 447 b 1390 213 1321 447 1390 375 b 1176 -25 1390 58 1328 -25 b 963 211 1025 -25 963 58 "},"‹":{"ha":463,"x_min":0,"x_max":0,"o":"m 313 656 l 404 564 l 218 379 l 404 194 l 313 103 l 90 324 l 90 435 "},"›":{"ha":463,"x_min":0,"x_max":0,"o":"m 371 435 l 371 324 l 149 103 l 57 194 l 243 379 l 57 564 l 149 656 "},"⁄":{"ha":232,"x_min":0,"x_max":0,"o":"m -215 0 l 357 996 l 464 996 l -107 0 "},"€":{"ha":772,"x_min":0,"x_max":0,"o":"m 119 643 b 486 992 150 864 236 992 b 764 899 640 992 713 943 l 713 746 b 507 833 686 776 638 833 b 321 643 392 833 335 788 l 676 643 l 635 521 l 315 521 l 315 446 l 610 446 l 567 324 l 321 324 b 526 136 332 192 379 136 b 719 199 636 136 679 168 l 719 25 b 514 -22 657 -11 603 -22 b 119 324 233 -22 149 89 l 3 324 l 47 446 l 111 446 l 111 521 l 3 521 l 46 643 "},"™":{"ha":1389,"x_min":0,"x_max":0,"o":"m 247 885 l 81 885 l 81 996 l 546 996 l 546 885 l 381 885 l 381 429 l 247 429 m 640 996 l 840 996 l 961 747 l 1081 996 l 1281 996 l 1281 429 l 1147 429 l 1147 838 l 1014 568 l 906 568 l 774 838 l 774 429 l 640 429 "},"−":{"ha":811,"x_min":0,"x_max":0,"o":"m 56 479 l 754 479 l 754 317 l 56 317 "},"ﬁ":{"ha":849,"x_min":0,"x_max":0,"o":"m 121 732 l 121 806 b 336 1008 121 935 161 1008 b 450 1000 396 1008 450 1000 l 450 850 b 383 853 450 850 403 853 b 314 767 314 853 314 819 l 314 732 l 446 732 l 446 576 l 314 576 l 314 0 l 121 0 l 121 576 l 14 576 l 14 732 m 557 732 l 750 732 l 750 0 l 557 0 m 543 911 b 653 1015 543 983 563 1015 b 764 911 743 1015 764 983 b 653 808 764 839 743 808 b 543 911 563 808 543 839 "},"ﬂ":{"ha":849,"x_min":0,"x_max":0,"o":"m 121 732 l 121 806 b 336 1008 121 935 161 1008 b 450 1000 396 1008 450 1000 l 450 850 b 383 853 450 850 403 853 b 314 767 314 853 314 819 l 314 732 l 446 732 l 446 576 l 314 576 l 314 0 l 121 0 l 121 576 l 14 576 l 14 732 m 557 996 l 750 996 l 750 0 l 557 0 "}}}
